<svg xmlns="http://www.w3.org/2000/svg" width="501" height="498" viewBox="0 0 501 498" version="1.1"><path d="M 236 85.500 C 236 107.333, 236.059 108, 238 108 C 239.766 108, 240.002 107.328, 240.015 102.250 C 240.033 95.553, 241.278 92.524, 242.516 96.165 C 243.159 98.057, 243.431 97.455, 243.950 93 C 244.545 87.897, 244.630 87.752, 245.136 91 C 245.510 93.407, 245.788 92.002, 246.026 86.500 L 246.373 78.500 247 87 L 247.627 95.500 247.971 86 C 248.275 77.587, 248.393 77.072, 249 81.500 L 249.686 86.500 249.990 82.500 C 250.157 80.300, 250.340 75.013, 250.397 70.752 L 250.500 63.004 243.250 63.002 L 236 63 236 85.500 M 261 72 C 261 76.950, 261.419 81, 261.930 81 C 262.442 81, 263.056 79.987, 263.294 78.750 C 263.533 77.513, 263.867 78.750, 264.036 81.500 L 264.345 86.500 265 80 L 265.655 73.500 266 80.500 L 266.345 87.500 267 81 L 267.655 74.500 267.996 83 L 268.336 91.500 269 85.500 L 269.664 79.500 269.932 85 C 270.317 92.913, 271.221 95.448, 273.791 95.820 C 275.994 96.138, 276 96.091, 276 79.570 L 276 63 268.500 63 L 261 63 261 72 M 211.500 86.490 C 176.302 96.975, 146.592 119.205, 125.282 151 C 113.623 168.395, 104.712 190.911, 102.429 208.747 L 101.968 212.342 103.984 210.018 C 105.093 208.740, 106 208.261, 106 208.954 C 106 209.647, 106.646 209.966, 107.435 209.663 C 108.225 209.360, 109.069 209.650, 109.310 210.306 C 110.186 212.684, 111.737 209.443, 113.858 200.802 C 117.179 187.266, 122.298 173.952, 127.627 164.986 C 147.246 131.979, 181.216 105.411, 215.985 95.883 C 220.393 94.675, 224.049 93.194, 224.108 92.593 C 224.167 91.992, 224.280 89.812, 224.358 87.750 C 224.486 84.366, 224.256 84.005, 222 84.053 C 220.625 84.082, 215.900 85.179, 211.500 86.490 M 287 88.784 L 287 93.568 296.686 96.478 C 309.132 100.217, 327.057 109.083, 338.490 117.154 C 357.324 130.450, 377.561 153.248, 386.740 171.510 C 392.063 182.101, 400 207.533, 400 213.999 C 400 215.680, 400.426 216, 402 215.500 C 403.497 215.025, 404.004 215.323, 404.015 216.683 C 404.026 218.005, 404.253 218.150, 404.845 217.216 C 405.313 216.479, 406.478 216.200, 407.580 216.560 C 409 217.025, 409.145 216.935, 408.137 216.215 C 407.023 215.420, 407.015 215.162, 408.092 214.803 C 409.146 214.451, 408.943 212.163, 407.084 203.431 C 401.428 176.869, 391.510 156.923, 372.808 134.500 C 358.548 117.403, 336.914 101.683, 314.823 92.366 C 307.468 89.264, 290.625 84, 288.054 84 C 287.462 84, 287 86.097, 287 88.784 M 254 99 C 254 99.550, 256.586 100.002, 259.750 100.004 C 276.172 100.016, 297.174 105.919, 316.750 116.025 C 324.038 119.787, 330 122.735, 330 122.574 C 330 122.414, 327.585 120.679, 324.633 118.719 C 306.323 106.562, 279.584 98, 259.928 98 C 256.643 98, 254 98.446, 254 99 M 254 106.245 L 254 110.726 261.750 111.943 C 268.322 112.975, 273.156 114.113, 282 116.712 C 282.825 116.955, 281.700 115.946, 279.500 114.472 C 277.300 112.997, 276.259 112.038, 277.187 112.340 C 281.827 113.850, 287.248 115.085, 287.617 114.716 C 287.845 114.488, 285.887 113.596, 283.266 112.735 L 278.500 111.168 285 111.476 C 288.575 111.646, 294.309 112.685, 297.743 113.785 C 306.130 116.473, 304.799 114.935, 295.322 110.990 C 285.549 106.922, 271.676 103.407, 261.750 102.485 L 254 101.765 254 106.245 M 211 106.429 C 201.785 109.661, 193.473 114.042, 186.243 119.476 C 182.810 122.058, 180 124.383, 180 124.644 C 180 125.198, 180.302 125.022, 189.500 119.090 C 193.350 116.607, 202.350 112.199, 209.500 109.293 C 222.410 104.046, 223.449 102.062, 211 106.429 M 213.500 112.428 C 186.418 117.791, 167.462 135.855, 159.382 164 C 156.731 173.237, 156.735 197.906, 159.390 206.500 C 165.414 226.003, 177.456 240.156, 195.471 248.906 C 206.926 254.470, 214.309 256.491, 241.459 261.496 C 280.552 268.702, 291.818 273.018, 300.750 284.209 C 302.538 286.449, 304 287.831, 304 287.282 C 304 285.409, 296.046 277.238, 291.266 274.200 C 282.776 268.805, 265.391 264.207, 232 258.527 C 206.763 254.233, 191.170 247.644, 178.734 236.018 C 170.360 228.189, 165.047 219.806, 161.292 208.500 C 159.022 201.664, 158.640 198.827, 158.667 189 C 158.697 177.989, 160.729 165.879, 163.197 162 C 163.995 160.745, 164.066 160.775, 163.634 162.179 C 163.350 163.102, 162.877 165.577, 162.584 167.679 C 162.088 171.234, 162.159 171.163, 163.607 166.665 C 164.463 164.006, 165.404 162.071, 165.698 162.364 C 165.991 162.658, 165.729 164.338, 165.116 166.098 C 164.502 167.858, 164.065 172.269, 164.144 175.899 L 164.287 182.500 164.995 174.427 C 165.384 169.988, 166.250 165.488, 166.920 164.427 C 168.024 162.679, 168.075 162.733, 167.463 165 C 167.092 166.375, 166.644 170.650, 166.468 174.500 L 166.147 181.500 166.923 175.234 C 167.349 171.788, 167.879 168.789, 168.099 168.571 C 168.320 168.353, 168.524 175.222, 168.554 183.837 C 168.606 198.719, 168.749 199.824, 171.410 206 C 177.387 219.867, 187.609 230.758, 200.950 237.473 C 212.016 243.043, 223.896 246.684, 245.132 251.012 C 274.384 256.975, 281.190 258.647, 289.763 261.976 C 302.167 266.792, 308.760 272.136, 313.852 281.500 C 314.450 282.600, 314.953 283.007, 314.970 282.405 C 315.040 279.868, 306.749 268.846, 301.825 264.931 C 292.034 257.146, 281.080 253.529, 250.500 247.980 C 219.120 242.286, 204.921 237.802, 192.944 229.804 C 181.642 222.257, 173.751 210.564, 170.424 196.435 C 166.173 178.385, 173.326 154.483, 187.589 139.077 C 205.870 119.331, 227.883 115.583, 266.941 125.565 C 274.334 127.454, 280.746 129, 281.191 129 C 281.636 129, 282 128.100, 282 127 C 282 124.748, 283.055 124.628, 287.787 126.344 L 291.075 127.535 287.669 130.836 C 284.336 134.067, 284.190 134.106, 280.789 132.685 C 275.329 130.404, 260.306 126.292, 251.140 124.570 C 245.989 123.603, 238.118 123.060, 230.640 123.156 L 218.500 123.312 230 124.010 C 245.934 124.977, 265.575 129.228, 280.734 134.990 L 285.967 136.979 287.648 134.414 C 288.573 133.003, 290.875 130.798, 292.764 129.515 L 296.198 127.181 291.349 125.015 C 284.497 121.954, 265.217 116.504, 252.388 114.002 C 238.311 111.256, 222.626 110.621, 213.500 112.428 M 304.478 125.801 C 297.176 129.316, 289.841 137.084, 287.592 143.684 C 281.995 160.109, 290.645 178.953, 306.531 184.943 C 311.431 186.791, 313.932 187.118, 320.500 186.768 C 329.836 186.270, 336.288 183.466, 342.201 177.336 C 348.119 171.201, 350.491 164.913, 350.439 155.500 C 350.385 145.925, 347.521 138.941, 340.910 132.264 C 334.541 125.831, 329.062 123.566, 319 123.206 C 311.331 122.932, 309.911 123.186, 304.478 125.801 M 212.844 131.394 C 190.665 139.316, 176.717 164.318, 182.453 185.869 C 187.032 203.075, 201.864 218.522, 220.565 225.561 C 228.007 228.362, 246.064 232.966, 261.308 235.950 C 276.598 238.942, 293.793 243.493, 302.320 246.804 C 320.512 253.868, 334.304 268.364, 337.978 284.282 C 341.851 301.067, 335.361 320.757, 321.712 333.633 C 306.903 347.603, 286.088 353.787, 239.504 358.058 C 232.907 358.663, 227.319 359.347, 227.088 359.579 C 226.856 359.811, 231.827 360, 238.133 360 C 244.468 360, 250.049 360.449, 250.603 361.003 C 251.672 362.072, 270.895 359.650, 273.897 358.068 C 274.779 357.604, 278.138 356.681, 281.363 356.018 C 290.047 354.231, 307.576 347.473, 315.078 343.020 C 328.825 334.860, 339.508 321.971, 343.934 308.206 C 345.973 301.865, 346.190 299.618, 345.766 289.256 C 345.183 275.029, 342.528 267.017, 335.008 256.794 C 323.662 241.370, 307.324 232.931, 275.500 226.055 C 270 224.867, 260.325 222.795, 254 221.451 C 221.007 214.440, 206.201 206.092, 198.709 190.275 C 195.906 184.357, 195.506 182.489, 195.549 175.500 C 195.602 166.890, 197.622 160.806, 202.593 154.289 C 203.987 152.462, 205.176 149.962, 205.235 148.734 C 205.295 147.505, 206.279 145.426, 207.422 144.114 L 209.500 141.729 207.273 142.887 C 206.048 143.524, 204.549 144.974, 203.942 146.109 C 203.335 147.243, 202.568 147.901, 202.237 147.571 C 201.907 147.240, 203.076 145.485, 204.836 143.669 C 206.596 141.854, 207.788 140.122, 207.486 139.820 C 207.185 139.518, 208.189 138.475, 209.719 137.502 C 212.697 135.608, 218.347 129.971, 217.194 130.044 C 216.812 130.068, 214.855 130.675, 212.844 131.394 M 236.234 156.737 C 236.478 181.283, 236.643 183.501, 238.250 183.810 C 239.882 184.124, 240 182.319, 240 157.073 C 240 130.594, 239.956 130, 237.984 130 C 236.006 130, 235.972 130.506, 236.234 156.737 M 309.491 135.865 C 305.215 137.808, 299.616 143.483, 298.497 147.010 C 298.123 148.187, 297.621 148.954, 297.381 148.714 C 297.141 148.474, 297.405 147.064, 297.969 145.582 C 298.635 143.829, 298.645 143.101, 297.997 143.502 C 296.829 144.224, 296.664 142.835, 297.750 141.429 C 298.163 140.895, 297.768 141.236, 296.874 142.186 C 295.980 143.137, 294.944 143.610, 294.571 143.238 C 294.199 142.866, 294.220 143.409, 294.617 144.445 C 295.094 145.687, 294.971 146.100, 294.255 145.658 C 293.659 145.289, 292.913 145.553, 292.597 146.244 C 292.282 146.935, 292.288 145.925, 292.612 144 C 293.159 140.747, 293.083 140.614, 291.527 142.109 C 289.404 144.150, 288.054 149.923, 288.024 157.090 C 287.955 173.310, 304.050 187.271, 321.042 185.730 C 338.543 184.143, 351.346 168.882, 348.079 153.500 C 347.612 151.300, 347.171 150.175, 347.100 151 C 346.984 152.333, 346.862 152.333, 346 151 C 345.227 149.805, 345.011 150.008, 344.936 152 C 344.862 153.966, 344.513 153.569, 343.300 150.137 C 342.348 147.443, 341.475 146.232, 341.018 146.971 C 340.488 147.829, 340.097 147.696, 339.639 146.502 C 338.725 144.120, 338.837 143.782, 340.250 144.648 C 341.051 145.140, 340.962 144.599, 340 143.141 C 339.175 141.891, 338.050 140.865, 337.500 140.862 C 336.950 140.860, 335.643 140.102, 334.595 139.179 C 332.725 137.531, 332.724 137.552, 334.550 140.387 C 335.572 141.974, 336.580 142.759, 336.790 142.130 C 337.226 140.821, 339 141.613, 339 143.118 C 339 143.668, 338.474 143.793, 337.830 143.395 C 337.013 142.890, 336.881 143.249, 337.393 144.586 C 337.796 145.639, 336.435 144.526, 334.369 142.114 C 327.772 134.413, 318.059 131.973, 309.491 135.865 M 312.315 138.102 C 308.173 139.300, 303.463 144.068, 301.979 148.564 C 300.246 153.815, 301.530 158.530, 305.875 162.875 C 312.659 169.659, 323.616 170.818, 330.600 165.492 C 334.968 162.160, 336.302 158.863, 335.739 152.792 C 334.720 141.812, 323.599 134.837, 312.315 138.102 M 272 165.858 C 272 193.331, 272.408 196.992, 275.162 194.238 C 276.701 192.699, 274.860 138.782, 273.250 138.248 C 272.270 137.923, 272 143.884, 272 165.858 M 311.328 139.938 C 300.400 144.900, 300.920 158.347, 312.263 164.134 C 317.104 166.604, 323.361 166.176, 328.458 163.026 C 337.174 157.639, 335.340 145.459, 325.030 140.250 C 319.631 137.522, 316.791 137.458, 311.328 139.938 M 310.750 145.080 C 308.801 146.215, 308.401 148, 310.096 148 C 312.041 148, 317.145 152.190, 319.095 155.389 C 320.139 157.100, 320.994 157.939, 320.996 157.253 C 320.998 156.567, 319.313 154.122, 317.250 151.819 C 315.153 149.478, 314.259 147.915, 315.221 148.273 C 317.119 148.981, 320.368 146.404, 319.450 144.919 C 318.693 143.694, 312.947 143.800, 310.750 145.080 M 208 155 C 206.825 156.650, 206.089 158, 206.364 158 C 206.639 158, 207.825 156.650, 209 155 C 210.175 153.350, 210.911 152, 210.636 152 C 210.361 152, 209.175 153.350, 208 155 M 144 155.831 C 144 156.288, 142.969 157.214, 141.708 157.888 C 140.448 158.563, 139.346 160.061, 139.259 161.217 C 139.171 162.374, 138.515 163.728, 137.800 164.227 C 136.988 164.793, 138.688 164.954, 142.328 164.655 C 145.533 164.392, 148.299 164.025, 148.473 163.839 C 148.865 163.420, 152 155.899, 152 155.378 C 152 155.170, 150.200 155, 148 155 C 145.800 155, 144 155.374, 144 155.831 M 363.286 159.415 C 363.286 163.947, 363.333 164.012, 367.393 165.049 C 369.652 165.626, 372.788 166.520, 374.362 167.036 C 376.947 167.883, 377.092 167.816, 375.862 166.333 C 375.113 165.431, 374.602 164.539, 374.726 164.351 C 374.850 164.163, 374.678 162.641, 374.344 160.969 C 373.668 157.592, 372.174 156.499, 366.874 155.504 L 363.286 154.831 363.286 159.415 M 356.841 175.477 C 355.917 177.514, 355.728 178.726, 356.382 178.403 C 356.997 178.100, 356.707 178.501, 355.739 179.294 C 354.129 180.612, 354.346 180.793, 358.239 181.379 C 360.582 181.732, 364.138 182.284, 366.141 182.607 C 369.625 183.168, 369.833 183.036, 370.990 179.530 C 371.655 177.515, 372.042 175.736, 371.850 175.578 C 371.003 174.880, 361.488 172, 360.030 172 C 359.143 172, 357.707 173.565, 356.841 175.477 M 377.336 173.500 C 379.759 181.949, 380.230 186.075, 379.729 194.473 C 379.210 203.163, 378.328 206.375, 373.321 217.791 C 372.994 218.535, 373.319 218.959, 374.088 218.791 C 375.836 218.410, 377.884 216.657, 377.441 215.921 C 376.955 215.112, 380.805 215.471, 381.646 216.313 C 385.061 219.728, 389.276 207.748, 389.207 194.825 C 389.158 185.771, 386.527 177, 383.861 177 C 383.173 177, 381.294 175.762, 379.686 174.250 C 377.203 171.914, 376.849 171.801, 377.336 173.500 M 134 175 C 133.411 176.100, 132.277 177, 131.478 177 C 129.830 177, 127 183.060, 127 186.591 C 127 188.266, 127.429 188.772, 128.500 188.362 C 129.325 188.045, 130 188.194, 130 188.692 C 130 189.190, 128.439 190.163, 126.530 190.853 C 122.096 192.456, 119 196.396, 119 200.435 C 119 202.176, 118.460 204.140, 117.800 204.800 C 116.016 206.584, 117.452 206.256, 121.260 204.009 C 125.921 201.259, 134.603 198.380, 140.806 197.527 L 146 196.812 146 191.768 L 146 186.725 140.750 187.365 C 137.863 187.718, 134.464 188.288, 133.198 188.633 C 131.088 189.208, 130.953 189.021, 131.575 186.380 C 131.948 184.796, 133.062 181.137, 134.051 178.250 C 135.902 172.844, 135.881 171.486, 134 175 M 140.660 176.750 C 138.811 183.572, 138.831 183.644, 142.526 183.581 C 145.954 183.523, 146 183.465, 146 179.139 C 146 175.356, 145.795 174.926, 144.500 176 C 143.464 176.860, 143 176.898, 143 176.122 C 143 174.336, 141.183 174.823, 140.660 176.750 M 209.815 177.400 C 210.093 178.462, 213.467 182.643, 217.313 186.693 C 223.483 193.188, 224.133 195.598, 218.500 191.098 C 216.505 189.504, 216.505 189.506, 218.469 191.821 C 219.552 193.098, 224.052 195.941, 228.469 198.139 C 232.886 200.337, 235.375 201.821, 234 201.437 C 232.625 201.053, 228.925 199.448, 225.779 197.870 C 219.361 194.651, 217.680 194.236, 220.559 196.582 C 222.216 197.932, 222.244 198.083, 220.750 197.613 C 217.781 196.679, 218.802 197.802, 223.250 200.360 C 229.933 204.204, 240.783 207.710, 264.213 213.596 C 294.903 221.307, 301.037 223.462, 316.893 232.105 C 322.935 235.399, 334.743 246.148, 339.141 252.359 C 343.662 258.744, 347.377 267.478, 349.432 276.552 L 351.005 283.500 350.469 277.542 C 350.175 274.265, 349.660 270.440, 349.326 269.042 C 348.992 267.644, 349.005 266.760, 349.355 267.079 C 349.705 267.397, 350.599 270.547, 351.342 274.079 L 352.693 280.500 353.518 274.500 L 354.342 268.500 355.636 273.500 L 356.930 278.500 356.553 272.500 C 356.051 264.505, 357.490 268.260, 359.071 279.073 C 364.404 315.547, 345.783 347.947, 309.636 365.087 C 299.839 369.732, 300.306 370.252, 310.332 365.862 C 330.573 357, 345.861 342.174, 355.045 322.500 C 360.948 309.855, 362.519 302.467, 362.381 288 C 362.235 272.618, 360.460 264.666, 354.348 252 C 350.363 243.743, 348.502 241.251, 340.131 232.960 C 332.358 225.261, 328.763 222.532, 321.500 218.816 C 311.202 213.548, 298.740 209.403, 281.500 205.512 C 235.564 195.145, 225.175 191.335, 214.945 181.105 C 211.564 177.724, 209.512 176.242, 209.815 177.400 M 349.500 188.142 C 344.331 192.351, 339.202 195.285, 333.055 197.550 C 328.375 199.274, 331.046 199.311, 338.224 197.622 C 341.372 196.881, 343.732 196.624, 343.468 197.052 C 343.204 197.479, 343.328 198.019, 343.744 198.251 C 344.160 198.483, 343.927 198.531, 343.227 198.359 C 342.232 198.114, 342.203 198.511, 343.093 200.174 C 344.083 202.024, 344.002 202.215, 342.475 201.629 C 341.041 201.078, 340.935 201.217, 341.900 202.380 C 342.819 203.486, 342.794 203.909, 341.792 204.266 C 341.081 204.519, 340.796 205.046, 341.157 205.437 C 341.997 206.345, 346.959 203.804, 354.175 198.772 L 359.851 194.815 365.573 196.478 C 371.571 198.222, 372.947 197.753, 372.985 193.950 C 372.993 193.098, 373.502 191.898, 374.116 191.284 C 374.937 190.463, 372.689 189.354, 365.604 187.084 C 360.309 185.388, 355.644 184.016, 355.238 184.036 C 354.832 184.055, 352.250 185.903, 349.500 188.142 M 223.698 199.501 C 226.327 201.343, 246.038 208.020, 248.627 207.947 C 249.657 207.918, 246.846 206.813, 242.380 205.492 C 237.914 204.171, 231.670 201.944, 228.505 200.545 C 221.928 197.636, 220.635 197.355, 223.698 199.501 M 359.253 204.250 C 357.483 205.488, 356.027 206.751, 356.017 207.057 C 356.008 207.364, 357.970 209.004, 360.379 210.701 L 364.758 213.788 367.227 211.319 L 369.696 208.849 366.664 205.425 C 364.996 203.541, 363.371 202, 363.052 202 C 362.733 202, 361.023 203.012, 359.253 204.250 M 145.475 204.750 C 146.138 207.012, 145.743 207.281, 141.773 207.269 C 140.823 207.267, 140.263 207.616, 140.529 208.047 C 140.795 208.477, 140.572 208.980, 140.034 209.165 C 139.496 209.349, 140.706 212.295, 142.723 215.711 C 145.803 220.928, 146.629 221.728, 147.887 220.711 C 149.117 219.716, 149.226 219.768, 148.500 221 C 147.738 222.294, 147.849 222.311, 149.308 221.128 C 150.239 220.373, 151 220.212, 151 220.771 C 151 221.329, 151.661 222.040, 152.468 222.349 C 153.631 222.796, 153.504 221.830, 151.856 217.706 C 150.712 214.843, 149.306 211.150, 148.732 209.500 C 148.157 207.850, 147.041 205.600, 146.251 204.500 C 144.850 202.549, 144.831 202.555, 145.475 204.750 M 124.348 212.553 C 119.431 217.110, 117.237 220.931, 117.180 225.035 C 117.150 227.216, 117.510 229, 117.981 229 C 120.213 229, 122 227.604, 122 225.861 C 122 222.676, 124.916 216.692, 128.041 213.462 C 130.724 210.690, 130.806 210.411, 128.976 210.273 C 127.873 210.190, 125.791 211.216, 124.348 212.553 M 350 211.500 C 349.315 212.325, 347.840 213, 346.721 213 C 345.542 213, 350.951 217.165, 359.594 222.913 C 375.988 233.815, 388.214 243.807, 392.816 250.065 C 394.536 252.404, 396.082 253.676, 396.461 253.063 C 396.822 252.479, 396.754 251.986, 396.309 251.970 C 395.864 251.953, 396.288 251.481, 397.250 250.920 C 398.212 250.359, 399 249.275, 399 248.509 C 399 247.744, 399.520 246.797, 400.155 246.405 C 400.918 245.932, 401.035 246.134, 400.500 247 C 399.993 247.820, 400.084 248.066, 400.741 247.660 C 401.318 247.303, 402.073 247.748, 402.419 248.649 C 402.764 249.549, 403.295 250.038, 403.598 249.735 C 404.617 248.716, 399.015 241.395, 393.734 236.844 C 384.307 228.719, 355.402 210, 352.285 210 C 351.713 210, 350.685 210.675, 350 211.500 M 390.825 218.514 C 389.788 222.846, 389.651 224.837, 390.398 224.701 C 391.004 224.590, 391.831 224.050, 392.235 223.500 C 392.683 222.889, 392.975 223.010, 392.985 223.809 C 392.993 224.529, 393.450 224.840, 394 224.500 C 394.551 224.159, 395.030 224.919, 395.068 226.191 L 395.135 228.500 396.257 226.168 C 397.097 224.422, 397.080 223.358, 396.189 221.932 C 395.535 220.884, 395 219.397, 395 218.628 C 395 217.858, 394.404 216.081, 393.676 214.678 C 392.390 212.197, 392.311 212.303, 390.825 218.514 M 136.094 217.500 C 136.406 219.682, 135.955 221.090, 135.109 220.568 C 134.620 220.265, 133.471 221.158, 132.557 222.553 C 130.943 225.016, 130.998 225.229, 134.463 229.949 C 136.425 232.622, 141.736 237.923, 146.265 241.727 C 154.750 248.856, 162.998 254.424, 161.513 252.021 C 160.893 251.018, 161.110 250.828, 162.336 251.299 C 163.823 251.869, 164.445 251.022, 164.145 248.831 C 164.095 248.463, 167.079 249.669, 170.777 251.511 C 180.265 256.238, 185.302 257.231, 178 252.935 C 165.193 245.399, 150.221 232.978, 140.714 222 C 138.094 218.975, 136.015 216.950, 136.094 217.500 M 220 222.465 C 220 224.282, 274.135 237.198, 275.602 235.731 C 275.826 235.507, 268.245 233.653, 258.755 231.611 C 249.265 229.569, 237.308 226.571, 232.183 224.949 C 223.254 222.123, 220 221.459, 220 222.465 M 244.928 226.587 C 247.364 227.351, 250.964 228.201, 252.928 228.476 C 254.893 228.752, 253.350 228.092, 249.500 227.011 C 241.571 224.785, 238.182 224.470, 244.928 226.587 M 351 227.845 C 351 228.310, 351.915 229.518, 353.032 230.529 C 354.150 231.541, 356.001 233.884, 357.146 235.736 C 359.133 238.951, 359.313 239.027, 361.114 237.397 C 363.075 235.622, 363.749 233.419, 362 234.500 C 361.450 234.840, 361 234.486, 361 233.714 C 361 232.942, 360.100 231.495, 359 230.500 C 357.900 229.505, 357 229.010, 357 229.402 C 357 229.793, 356 229.413, 354.777 228.557 C 352.299 226.821, 351 226.576, 351 227.845 M 121.105 231.085 C 117.250 232.627, 109.379 238.770, 107.439 241.751 C 105.710 244.408, 105.712 244.450, 107.479 243 C 108.485 242.175, 109.576 241.613, 109.904 241.750 C 110.232 241.887, 110.500 241.572, 110.500 241.050 C 110.500 240.528, 111.063 239.628, 111.750 239.050 C 112.649 238.295, 112.741 238.315, 112.078 239.122 C 111.571 239.739, 111.377 240.818, 111.646 241.521 C 111.916 242.223, 111.656 243.095, 111.068 243.458 C 110.481 243.821, 110 244.597, 110 245.181 C 110 245.809, 110.682 245.682, 111.664 244.872 C 113.155 243.642, 113.216 243.710, 112.249 245.526 C 111.526 246.882, 111.495 248.134, 112.155 249.312 C 113.030 250.876, 113.770 250.497, 118.778 245.920 C 121.878 243.087, 125.458 240.293, 126.733 239.712 C 128.009 239.131, 128.916 238.395, 128.750 238.078 C 128.584 237.760, 127.589 235.813, 126.539 233.750 C 124.453 229.654, 124.556 229.704, 121.105 231.085 M 371.500 246.126 C 365.924 250.648, 365.209 252.066, 367.402 254.260 C 368.229 255.086, 368.589 256.138, 368.202 256.598 C 367.816 257.058, 368.309 256.814, 369.297 256.055 C 370.700 254.979, 370.810 254.499, 369.797 253.870 C 368.988 253.366, 369.588 253.145, 371.391 253.281 C 373.069 253.408, 374.401 252.965, 374.566 252.225 C 374.722 251.524, 374.621 251.411, 374.342 251.975 C 374.062 252.539, 373.366 253, 372.794 253 C 372.148 253, 372.207 252.456, 372.951 251.559 C 373.608 250.767, 374.743 250.348, 375.472 250.628 C 377.188 251.286, 378.396 249.363, 376.862 248.415 C 376.068 247.924, 375.953 248.143, 376.506 249.095 C 376.954 249.868, 376.939 250.153, 376.473 249.730 C 375.410 248.763, 375.068 244.924, 376.101 245.563 C 376.520 245.821, 377.187 245.506, 377.585 244.862 C 378.070 244.077, 377.872 243.961, 376.985 244.510 C 376.023 245.104, 375.835 244.872, 376.299 243.664 C 377.125 241.510, 377.308 241.416, 371.500 246.126 M 130.250 245.934 C 126.481 248.664, 123.040 252.330, 125.912 250.554 C 126.661 250.092, 127.062 250.322, 126.948 251.150 C 126.589 253.767, 127.011 255.111, 128 254.500 C 128.891 253.949, 129.411 256.120, 129.264 259.779 C 129.235 260.483, 131.077 259.358, 133.356 257.279 C 135.635 255.201, 138.625 252.757, 140 251.848 L 142.500 250.196 139.054 246.598 C 137.158 244.619, 135.313 243, 134.954 243 C 134.594 243, 132.477 244.320, 130.250 245.934 M 144.500 258.587 C 142.300 260.544, 141.063 261.861, 141.750 261.513 C 142.438 261.166, 143 261.310, 143 261.833 C 143 262.355, 144.143 263.070, 145.541 263.421 C 147.164 263.828, 147.828 264.500, 147.381 265.279 C 146.995 265.951, 147.048 266.166, 147.498 265.759 C 147.948 265.351, 148.835 265.448, 149.469 265.974 C 150.242 266.616, 151.824 266.075, 154.278 264.328 L 157.936 261.726 153.718 258.373 C 151.398 256.528, 149.275 255.022, 149 255.025 C 148.725 255.027, 146.700 256.631, 144.500 258.587 M 387.015 258.500 C 386.977 260.160, 386.805 260.245, 386 259 C 385.138 257.667, 385.027 257.667, 385 259 C 384.975 260.241, 384.819 260.262, 384.096 259.122 C 382.499 256.599, 381.081 258.796, 382.074 262.257 C 383.212 266.226, 383.211 279.955, 382.073 285.848 C 381.329 289.700, 381.403 290.026, 382.723 288.706 C 383.557 287.872, 384.682 283.663, 385.278 279.154 C 385.863 274.721, 386.671 271.297, 387.073 271.545 C 388.326 272.319, 389.277 260.311, 388.120 258.322 C 387.119 256.601, 387.058 256.610, 387.015 258.500 M 165.203 265.429 C 160.752 268.576, 160.403 269, 162.262 269 C 163.139 269, 164.511 268.346, 165.310 267.548 C 166.108 266.749, 167.040 266.374, 167.381 266.714 C 167.721 267.055, 168 266.782, 168 266.108 C 168 265.434, 168.520 265.203, 169.155 265.595 C 169.837 266.017, 170.039 265.872, 169.648 265.240 C 169.285 264.652, 169.553 263.943, 170.244 263.664 C 171.099 263.319, 171.021 263.148, 170 263.128 C 169.175 263.112, 167.016 264.147, 165.203 265.429 M 138.058 267.981 C 140.784 271.538, 150.911 276.202, 158.500 277.397 C 161.738 277.907, 161.111 277.470, 155.211 275.103 C 151.202 273.495, 147.377 271.767, 146.711 271.262 C 146.045 270.757, 143.250 269.062, 140.500 267.494 L 135.500 264.643 138.058 267.981 M 371.070 268.750 C 371.109 269.163, 371.529 270.400, 372.005 271.500 C 372.750 273.226, 372.848 273.123, 372.716 270.750 C 372.632 269.238, 372.212 268, 371.782 268 C 371.352 268, 371.032 268.337, 371.070 268.750 M 236 299.368 C 236 315.601, 236.359 329.104, 236.798 329.375 C 237.237 329.646, 238.144 329.529, 238.813 329.115 C 239.735 328.546, 239.967 321.334, 239.766 299.445 C 239.521 272.821, 239.361 270.500, 237.750 270.190 C 236.115 269.876, 236 271.797, 236 299.368 M 122.458 276.750 C 123.258 281.150, 127.243 291.964, 128.073 291.985 C 128.388 291.993, 127.786 288.288, 126.735 283.750 C 124.236 272.962, 124.250 273, 122.920 273 C 122.145 273, 121.997 274.207, 122.458 276.750 M 354.252 279.500 C 354.263 281.700, 354.468 282.482, 354.707 281.238 C 354.946 279.994, 354.937 278.194, 354.687 277.238 C 354.437 276.282, 354.241 277.300, 354.252 279.500 M 272 300.531 C 272 319.837, 272.211 323, 273.500 323 C 274.788 323, 275 319.901, 275 301.107 C 275 282.569, 274.770 279.126, 273.500 278.638 C 272.194 278.137, 272 280.970, 272 300.531 M 180.024 282.539 C 169.305 285.545, 159.998 293.327, 155.814 302.780 C 152.869 309.436, 152.242 321.882, 154.466 329.533 C 158.551 343.582, 173.448 356.754, 187.253 358.521 C 191.437 359.056, 191.419 359.037, 186 357.200 C 177.341 354.265, 172.101 351.196, 166.944 346.040 C 156.245 335.340, 152.519 319.903, 157.704 307.750 C 159.140 304.383, 160.064 303.573, 162.154 303.850 C 162.514 303.897, 163.334 303.302, 163.977 302.527 C 164.620 301.753, 165.788 301.365, 166.573 301.666 C 167.358 301.968, 168 301.732, 168 301.142 C 168 300.553, 168.903 299.587, 170.007 298.996 C 171.652 298.116, 171.480 298.694, 169.048 302.211 C 167.417 304.570, 165.782 307.850, 165.416 309.500 C 164.943 311.628, 165.595 310.902, 167.661 307 C 170.910 300.864, 177.342 295.808, 184.343 293.886 C 189.083 292.585, 198.583 294.026, 202.595 296.654 C 203.869 297.489, 205.351 297.901, 205.887 297.570 C 206.423 297.239, 207.187 297.494, 207.585 298.138 C 208.080 298.939, 207.865 299.041, 206.905 298.463 C 205.717 297.747, 205.708 297.872, 206.846 299.276 C 207.586 300.189, 208.486 300.897, 208.846 300.850 C 209.206 300.802, 209.725 300.851, 210 300.958 C 211.951 301.719, 214 301.665, 214 300.852 C 214 300.319, 214.563 300.229, 215.250 300.652 C 215.938 301.076, 215.634 300.090, 214.575 298.461 C 212.800 295.730, 212.792 295.616, 214.479 297 C 215.485 297.825, 216.576 298.302, 216.904 298.059 C 217.900 297.323, 221.933 304.040, 223.113 308.401 C 223.724 310.655, 224.003 315.608, 223.734 319.407 C 223.350 324.830, 223.487 325.905, 224.372 324.407 C 224.993 323.358, 225.489 318.675, 225.475 314 C 225.456 307.156, 224.997 304.577, 223.122 300.764 C 215.840 285.957, 196.699 277.862, 180.024 282.539 M 315.361 290.035 C 315.338 300.800, 308.908 312.211, 299.255 318.619 C 289.045 325.396, 276.681 329.079, 244.461 334.941 C 206.855 341.783, 197.397 342.317, 187.779 338.144 C 175.730 332.917, 167.686 317.243, 172.411 308.200 C 174.305 304.575, 178.866 300.367, 182.315 299.064 C 186.527 297.472, 195.731 297.779, 199.655 299.641 C 203.999 301.702, 207.681 306.462, 208.877 311.564 C 209.666 314.933, 209.814 315.095, 209.900 312.684 C 210.213 303.908, 197.858 294.808, 187.812 296.414 C 179.086 297.809, 171.179 304.401, 168.813 312.252 C 166.054 321.407, 172.668 333.722, 183.500 339.596 C 194.960 345.812, 209.933 346.950, 235.028 343.513 C 240.819 342.720, 246.669 342.319, 248.028 342.622 C 250.014 343.065, 250.205 342.954, 249 342.056 C 247.812 341.172, 248.055 341.068, 250.168 341.558 C 253.281 342.279, 264.814 340.121, 263.195 339.121 C 262.593 338.748, 266.240 337.388, 271.300 336.098 C 280.711 333.699, 297.777 326.745, 302.093 323.552 C 304.473 321.792, 304.475 321.778, 302.253 322.292 C 300.503 322.696, 301.124 321.671, 305.065 317.656 C 313.602 308.955, 318.652 294.885, 316.234 286.535 C 315.536 284.128, 315.372 284.786, 315.361 290.035 M 210.181 299.338 C 210.909 300.698, 211.489 301.032, 211.753 300.241 C 211.983 299.552, 212.695 299.281, 213.335 299.640 C 214.099 300.069, 214.074 299.834, 213.260 298.957 C 212.578 298.222, 211.347 297.521, 210.523 297.401 C 209.292 297.220, 209.231 297.564, 210.181 299.338 M 163.574 304.857 C 162.708 306.531, 162 308.468, 162 309.162 C 162 309.855, 162.893 308.671, 163.985 306.530 C 165.077 304.388, 165.785 302.451, 165.559 302.225 C 165.332 301.999, 164.439 303.184, 163.574 304.857 M 160.500 306 C 160.125 307.183, 160.042 308.376, 160.317 308.651 C 160.592 308.926, 161.125 308.183, 161.500 307 C 161.875 305.817, 161.958 304.624, 161.683 304.349 C 161.408 304.074, 160.875 304.817, 160.500 306 M 186.174 309.314 C 182.771 312.938, 183.196 319.014, 187.169 323.540 C 190.766 327.636, 204.851 336.271, 206.749 335.543 C 207.437 335.279, 208 335.444, 208 335.910 C 208 336.892, 220.365 336.663, 230.402 335.496 L 237.303 334.693 229.902 332.077 C 216.685 327.405, 191.670 312.688, 190.459 308.871 C 189.681 306.421, 188.808 306.511, 186.174 309.314 M 189 321.447 C 189 321.722, 191.284 323.485, 194.076 325.365 C 196.873 327.249, 198.579 328.974, 197.876 329.208 C 196.969 329.510, 197.063 329.810, 198.202 330.247 C 199.258 330.652, 199.730 330.363, 199.588 329.397 C 199.393 328.071, 189 320.267, 189 321.447 M 204 329.501 C 204 329.753, 205.844 330.900, 208.097 332.049 C 214.153 335.139, 212.098 335.573, 205.849 332.525 C 202.907 331.089, 201.281 330.541, 202.234 331.306 C 203.188 332.072, 203.638 333.063, 203.234 333.509 C 202.831 333.955, 203.053 334.003, 203.729 333.614 C 204.405 333.225, 205.965 333.446, 207.196 334.105 C 208.426 334.763, 211.248 335.452, 213.467 335.635 L 217.500 335.968 213.500 333.723 C 208.427 330.875, 204 328.908, 204 329.501 M 285 364.090 C 280.325 365.088, 272.450 366.352, 267.500 366.898 L 258.500 367.891 268 367.487 C 276.779 367.113, 287.203 365.391, 294.500 363.110 C 299.381 361.584, 294.270 362.111, 285 364.090 M 217 372.529 C 222.594 374.391, 236.383 376.027, 245 375.851 C 250.162 375.745, 249.236 375.551, 240.500 374.907 C 234.450 374.461, 226.800 373.592, 223.500 372.976 C 213.148 371.044, 212.378 370.991, 217 372.529 M 273.338 376.804 C 272.658 377.233, 272.073 382.684, 271.813 391 C 271.470 402.013, 271 405.371, 269.262 409.227 L 267.133 413.954 269.816 415.294 C 271.292 416.031, 272.401 417.124, 272.281 417.724 C 272.161 418.323, 272.758 418.712, 273.609 418.587 C 274.952 418.390, 275.140 415.612, 275.040 397.476 C 274.977 385.990, 274.817 376.483, 274.684 376.350 C 274.551 376.217, 273.945 376.422, 273.338 376.804 M 236 400 C 236 410.450, 236.372 419, 236.826 419 C 237.280 419, 238.708 417.875, 240 416.500 C 242.245 414.110, 244.737 412.998, 243.553 414.915 C 243.242 415.418, 243.553 416.057, 244.244 416.336 C 245.242 416.738, 245.243 416.858, 244.250 416.921 C 241.560 417.091, 243.181 418.701, 246.126 418.785 L 249.253 418.873 246.741 416.187 C 241.539 410.624, 240.585 407.360, 240.179 393.750 C 239.830 382.025, 239.646 381, 237.900 381 C 236.100 381, 236 382.001, 236 400 M 224.389 410.500 C 224.390 417.650, 224.550 420.444, 224.742 416.708 C 224.935 412.973, 224.934 407.123, 224.739 403.708 C 224.545 400.294, 224.387 403.350, 224.389 410.500" stroke="none" fill="#c0eedb" fill-rule="evenodd"/><path d="M 225.667 53.667 C 225.300 54.033, 225 60.783, 225 68.667 C 225 81.624, 224.832 83.007, 223.250 83.070 C 221.818 83.128, 221.772 83.264, 223 83.820 C 224.357 84.435, 224.590 86.154, 224.125 92.093 C 224.038 93.203, 221.570 94.352, 215.985 95.883 C 181.216 105.411, 147.246 131.979, 127.627 164.986 C 122.298 173.952, 117.179 187.266, 113.858 200.802 C 111.737 209.443, 110.186 212.684, 109.310 210.306 C 109.069 209.650, 108.225 209.360, 107.435 209.663 C 106.646 209.966, 106 209.647, 106 208.954 C 106 208.261, 105.030 208.775, 103.844 210.097 C 102.404 211.702, 101.892 211.929, 102.300 210.782 C 102.637 209.837, 102.519 208.820, 102.037 208.523 C 99.684 207.069, 98.938 234.485, 100.664 259 C 102.880 290.466, 111.981 313.990, 131.887 339.698 C 153.387 367.466, 182.351 386.370, 215.250 394.106 L 225 396.399 225 412.699 L 225 429 256 429 L 287 429 287 412.519 L 287 396.038 289.750 395.461 C 298.630 393.599, 302.447 392.492, 311 389.297 C 341.318 377.974, 364.143 360.188, 384.319 332.166 C 398.758 312.113, 408.975 283.830, 409.017 263.803 C 409.027 259.236, 409.654 251.675, 410.410 247 C 411.753 238.698, 411.510 219, 410.065 219 C 409.700 219, 409.515 217.313, 409.654 215.250 C 409.793 213.188, 409.670 212.287, 409.380 213.250 C 409.090 214.213, 408.468 215, 407.998 215 C 407.528 215, 406.436 215.707, 405.571 216.571 C 404.143 218, 404 217.994, 404 216.504 C 404 215.320, 403.445 215.041, 402 215.500 C 400.426 216, 400 215.680, 400 213.999 C 400 207.533, 392.063 182.101, 386.740 171.510 C 377.561 153.248, 357.324 130.450, 338.490 117.154 C 327.058 109.083, 309.132 100.217, 296.687 96.478 L 287.002 93.569 287.056 74.534 C 287.086 64.065, 287.085 54.938, 287.055 54.250 C 287.012 53.279, 280.237 53, 256.667 53 C 239.983 53, 226.033 53.300, 225.667 53.667 M 236 85.500 C 236 107.333, 236.059 108, 238 108 C 239.766 108, 240.002 107.328, 240.015 102.250 C 240.033 95.553, 241.278 92.524, 242.516 96.165 C 243.159 98.057, 243.431 97.455, 243.950 93 C 244.545 87.897, 244.630 87.752, 245.136 91 C 245.510 93.407, 245.788 92.002, 246.026 86.500 L 246.373 78.500 247 87 L 247.627 95.500 247.971 86 C 248.275 77.587, 248.393 77.072, 249 81.500 L 249.686 86.500 249.990 82.500 C 250.157 80.300, 250.340 75.013, 250.397 70.752 L 250.500 63.004 243.250 63.002 L 236 63 236 85.500 M 261 72 C 261 76.950, 261.419 81, 261.930 81 C 262.442 81, 263.056 79.987, 263.294 78.750 C 263.533 77.513, 263.867 78.750, 264.036 81.500 L 264.345 86.500 265 80 L 265.655 73.500 266 80.500 L 266.345 87.500 267 81 L 267.655 74.500 267.996 83 L 268.336 91.500 269 85.500 L 269.664 79.500 269.932 85 C 270.317 92.913, 271.221 95.448, 273.791 95.820 C 275.994 96.138, 276 96.091, 276 79.570 L 276 63 268.500 63 L 261 63 261 72 M 254 99 C 254 99.550, 256.586 100.002, 259.750 100.004 C 276.172 100.016, 297.174 105.919, 316.750 116.025 C 324.038 119.787, 330 122.735, 330 122.574 C 330 122.414, 327.585 120.679, 324.633 118.719 C 306.323 106.562, 279.584 98, 259.928 98 C 256.643 98, 254 98.446, 254 99 M 254 106.245 L 254 110.726 261.750 111.943 C 268.322 112.975, 273.156 114.113, 282 116.712 C 282.825 116.955, 281.700 115.946, 279.500 114.472 C 277.300 112.997, 276.259 112.038, 277.187 112.340 C 281.827 113.850, 287.248 115.085, 287.617 114.716 C 287.845 114.488, 285.887 113.596, 283.266 112.735 L 278.500 111.168 285 111.476 C 288.575 111.646, 294.309 112.685, 297.743 113.785 C 306.130 116.473, 304.799 114.935, 295.322 110.990 C 285.549 106.922, 271.676 103.407, 261.750 102.485 L 254 101.765 254 106.245 M 211 106.429 C 201.785 109.661, 193.473 114.042, 186.243 119.476 C 182.810 122.058, 180 124.383, 180 124.644 C 180 125.198, 180.302 125.022, 189.500 119.090 C 193.350 116.607, 202.350 112.199, 209.500 109.293 C 222.410 104.046, 223.449 102.062, 211 106.429 M 213.500 112.428 C 186.418 117.791, 167.462 135.855, 159.382 164 C 156.731 173.237, 156.735 197.906, 159.390 206.500 C 165.414 226.003, 177.456 240.156, 195.471 248.906 C 206.926 254.470, 214.309 256.491, 241.459 261.496 C 280.552 268.702, 291.818 273.018, 300.750 284.209 C 302.538 286.449, 304 287.831, 304 287.282 C 304 285.409, 296.046 277.238, 291.266 274.200 C 282.776 268.805, 265.391 264.207, 232 258.527 C 206.763 254.233, 191.170 247.644, 178.734 236.018 C 170.360 228.189, 165.047 219.806, 161.292 208.500 C 159.022 201.664, 158.640 198.827, 158.667 189 C 158.697 177.989, 160.729 165.879, 163.197 162 C 163.995 160.745, 164.066 160.775, 163.634 162.179 C 163.350 163.102, 162.877 165.577, 162.584 167.679 C 162.088 171.234, 162.159 171.163, 163.607 166.665 C 164.463 164.006, 165.404 162.071, 165.698 162.364 C 165.991 162.658, 165.729 164.338, 165.116 166.098 C 164.502 167.858, 164.065 172.269, 164.144 175.899 L 164.287 182.500 164.995 174.427 C 165.384 169.988, 166.250 165.488, 166.920 164.427 C 168.024 162.679, 168.075 162.733, 167.463 165 C 167.092 166.375, 166.644 170.650, 166.468 174.500 L 166.147 181.500 166.923 175.234 C 167.349 171.788, 167.879 168.789, 168.099 168.571 C 168.320 168.353, 168.524 175.222, 168.554 183.837 C 168.606 198.719, 168.749 199.824, 171.410 206 C 177.387 219.867, 187.609 230.758, 200.950 237.473 C 212.016 243.043, 223.896 246.684, 245.132 251.012 C 274.384 256.975, 281.190 258.647, 289.763 261.976 C 302.167 266.792, 308.760 272.136, 313.852 281.500 C 314.450 282.600, 314.953 283.007, 314.970 282.405 C 315.040 279.868, 306.749 268.846, 301.825 264.931 C 292.034 257.146, 281.080 253.529, 250.500 247.980 C 219.120 242.286, 204.921 237.802, 192.944 229.804 C 181.642 222.257, 173.751 210.564, 170.424 196.435 C 166.173 178.385, 173.326 154.483, 187.589 139.077 C 205.870 119.331, 227.883 115.583, 266.941 125.565 C 274.334 127.454, 280.746 129, 281.191 129 C 281.636 129, 282 128.100, 282 127 C 282 124.748, 283.055 124.628, 287.787 126.344 L 291.075 127.535 287.669 130.836 C 284.336 134.067, 284.190 134.106, 280.789 132.685 C 275.329 130.404, 260.306 126.292, 251.140 124.570 C 245.989 123.603, 238.118 123.060, 230.640 123.156 L 218.500 123.312 230 124.010 C 245.934 124.977, 265.575 129.228, 280.734 134.990 L 285.967 136.979 287.648 134.414 C 288.573 133.003, 290.875 130.798, 292.764 129.515 L 296.198 127.181 291.349 125.015 C 284.497 121.954, 265.217 116.504, 252.388 114.002 C 238.311 111.256, 222.626 110.621, 213.500 112.428 M 304.478 125.801 C 297.176 129.316, 289.841 137.084, 287.592 143.684 C 281.995 160.109, 290.645 178.953, 306.531 184.943 C 311.431 186.791, 313.932 187.118, 320.500 186.768 C 329.836 186.270, 336.288 183.466, 342.201 177.336 C 348.119 171.201, 350.491 164.913, 350.439 155.500 C 350.385 145.925, 347.521 138.941, 340.910 132.264 C 334.541 125.831, 329.062 123.566, 319 123.206 C 311.331 122.932, 309.911 123.186, 304.478 125.801 M 212.844 131.394 C 190.665 139.316, 176.717 164.318, 182.453 185.869 C 187.032 203.075, 201.864 218.522, 220.565 225.561 C 228.007 228.362, 246.064 232.966, 261.308 235.950 C 276.598 238.942, 293.793 243.493, 302.320 246.804 C 320.512 253.868, 334.304 268.364, 337.978 284.282 C 341.851 301.067, 335.361 320.757, 321.712 333.633 C 306.903 347.603, 286.088 353.787, 239.504 358.058 C 232.907 358.663, 227.319 359.347, 227.088 359.579 C 226.856 359.811, 231.827 360, 238.133 360 C 244.468 360, 250.049 360.449, 250.603 361.003 C 251.672 362.072, 270.895 359.650, 273.897 358.068 C 274.779 357.604, 278.138 356.681, 281.363 356.018 C 290.047 354.231, 307.576 347.473, 315.078 343.020 C 328.825 334.860, 339.508 321.971, 343.934 308.206 C 345.973 301.865, 346.190 299.618, 345.766 289.256 C 345.183 275.029, 342.528 267.017, 335.008 256.794 C 323.662 241.370, 307.324 232.931, 275.500 226.055 C 270 224.867, 260.325 222.795, 254 221.451 C 221.007 214.440, 206.201 206.092, 198.709 190.275 C 195.906 184.357, 195.506 182.489, 195.549 175.500 C 195.602 166.890, 197.622 160.806, 202.593 154.289 C 203.987 152.462, 205.176 149.962, 205.235 148.734 C 205.295 147.505, 206.279 145.426, 207.422 144.114 L 209.500 141.729 207.273 142.887 C 206.048 143.524, 204.549 144.974, 203.942 146.109 C 203.335 147.243, 202.568 147.901, 202.237 147.571 C 201.907 147.240, 203.076 145.485, 204.836 143.669 C 206.596 141.854, 207.788 140.122, 207.486 139.820 C 207.185 139.518, 208.189 138.475, 209.719 137.502 C 212.697 135.608, 218.347 129.971, 217.194 130.044 C 216.812 130.068, 214.855 130.675, 212.844 131.394 M 236.234 156.737 C 236.478 181.283, 236.643 183.501, 238.250 183.810 C 239.882 184.124, 240 182.319, 240 157.073 C 240 130.594, 239.956 130, 237.984 130 C 236.006 130, 235.972 130.506, 236.234 156.737 M 309.491 135.865 C 305.215 137.808, 299.616 143.483, 298.497 147.010 C 298.123 148.187, 297.621 148.954, 297.381 148.714 C 297.141 148.474, 297.405 147.064, 297.969 145.582 C 298.635 143.829, 298.645 143.101, 297.997 143.502 C 296.829 144.224, 296.664 142.835, 297.750 141.429 C 298.163 140.895, 297.768 141.236, 296.874 142.186 C 295.980 143.137, 294.944 143.610, 294.571 143.238 C 294.199 142.866, 294.220 143.409, 294.617 144.445 C 295.094 145.687, 294.971 146.100, 294.255 145.658 C 293.659 145.289, 292.913 145.553, 292.597 146.244 C 292.282 146.935, 292.288 145.925, 292.612 144 C 293.159 140.747, 293.083 140.614, 291.527 142.109 C 289.404 144.150, 288.054 149.923, 288.024 157.090 C 287.955 173.310, 304.050 187.271, 321.042 185.730 C 338.543 184.143, 351.346 168.882, 348.079 153.500 C 347.612 151.300, 347.171 150.175, 347.100 151 C 346.984 152.333, 346.862 152.333, 346 151 C 345.227 149.805, 345.011 150.008, 344.936 152 C 344.862 153.966, 344.513 153.569, 343.300 150.137 C 342.348 147.443, 341.475 146.232, 341.018 146.971 C 340.488 147.829, 340.097 147.696, 339.639 146.502 C 338.725 144.120, 338.837 143.782, 340.250 144.648 C 341.051 145.140, 340.962 144.599, 340 143.141 C 339.175 141.891, 338.050 140.865, 337.500 140.862 C 336.950 140.860, 335.643 140.102, 334.595 139.179 C 332.725 137.531, 332.724 137.552, 334.550 140.387 C 335.572 141.974, 336.580 142.759, 336.790 142.130 C 337.226 140.821, 339 141.613, 339 143.118 C 339 143.668, 338.474 143.793, 337.830 143.395 C 337.013 142.890, 336.881 143.249, 337.393 144.586 C 337.796 145.639, 336.435 144.526, 334.369 142.114 C 327.772 134.413, 318.059 131.973, 309.491 135.865 M 312.315 138.102 C 308.173 139.300, 303.463 144.068, 301.979 148.564 C 300.246 153.815, 301.530 158.530, 305.875 162.875 C 312.659 169.659, 323.616 170.818, 330.600 165.492 C 334.968 162.160, 336.302 158.863, 335.739 152.792 C 334.720 141.812, 323.599 134.837, 312.315 138.102 M 272 165.858 C 272 193.331, 272.408 196.992, 275.162 194.238 C 276.701 192.699, 274.860 138.782, 273.250 138.248 C 272.270 137.923, 272 143.884, 272 165.858 M 311.328 139.938 C 300.400 144.900, 300.920 158.347, 312.263 164.134 C 317.104 166.604, 323.361 166.176, 328.458 163.026 C 337.174 157.639, 335.340 145.459, 325.030 140.250 C 319.631 137.522, 316.791 137.458, 311.328 139.938 M 310.750 145.080 C 308.801 146.215, 308.401 148, 310.096 148 C 312.041 148, 317.145 152.190, 319.095 155.389 C 320.139 157.100, 320.994 157.939, 320.996 157.253 C 320.998 156.567, 319.313 154.122, 317.250 151.819 C 315.153 149.478, 314.259 147.915, 315.221 148.273 C 317.119 148.981, 320.368 146.404, 319.450 144.919 C 318.693 143.694, 312.947 143.800, 310.750 145.080 M 208 155 C 206.825 156.650, 206.089 158, 206.364 158 C 206.639 158, 207.825 156.650, 209 155 C 210.175 153.350, 210.911 152, 210.636 152 C 210.361 152, 209.175 153.350, 208 155 M 144 155.831 C 144 156.288, 142.969 157.214, 141.708 157.888 C 140.448 158.563, 139.346 160.061, 139.259 161.217 C 139.171 162.374, 138.515 163.728, 137.800 164.227 C 136.988 164.793, 138.688 164.954, 142.328 164.655 C 145.533 164.392, 148.299 164.025, 148.473 163.839 C 148.865 163.420, 152 155.899, 152 155.378 C 152 155.170, 150.200 155, 148 155 C 145.800 155, 144 155.374, 144 155.831 M 363.286 159.415 C 363.286 163.947, 363.333 164.012, 367.393 165.049 C 369.652 165.626, 372.788 166.520, 374.362 167.036 C 376.947 167.883, 377.092 167.816, 375.862 166.333 C 375.113 165.431, 374.602 164.539, 374.726 164.351 C 374.850 164.163, 374.678 162.641, 374.344 160.969 C 373.668 157.592, 372.174 156.499, 366.874 155.504 L 363.286 154.831 363.286 159.415 M 356.841 175.477 C 355.917 177.514, 355.728 178.726, 356.382 178.403 C 356.997 178.100, 356.707 178.501, 355.739 179.294 C 354.129 180.612, 354.346 180.793, 358.239 181.379 C 360.582 181.732, 364.138 182.284, 366.141 182.607 C 369.625 183.168, 369.833 183.036, 370.990 179.530 C 371.655 177.515, 372.042 175.736, 371.850 175.578 C 371.003 174.880, 361.488 172, 360.030 172 C 359.143 172, 357.707 173.565, 356.841 175.477 M 377.336 173.500 C 379.759 181.949, 380.230 186.075, 379.729 194.473 C 379.210 203.163, 378.328 206.375, 373.321 217.791 C 372.994 218.535, 373.319 218.959, 374.088 218.791 C 375.836 218.410, 377.884 216.657, 377.441 215.921 C 376.955 215.112, 380.805 215.471, 381.646 216.313 C 385.061 219.728, 389.276 207.748, 389.207 194.825 C 389.158 185.771, 386.527 177, 383.861 177 C 383.173 177, 381.294 175.762, 379.686 174.250 C 377.203 171.914, 376.849 171.801, 377.336 173.500 M 134 175 C 133.411 176.100, 132.277 177, 131.478 177 C 129.830 177, 127 183.060, 127 186.591 C 127 188.266, 127.429 188.772, 128.500 188.362 C 129.325 188.045, 130 188.194, 130 188.692 C 130 189.190, 128.439 190.163, 126.530 190.853 C 122.096 192.456, 119 196.396, 119 200.435 C 119 202.176, 118.460 204.140, 117.800 204.800 C 116.016 206.584, 117.452 206.256, 121.260 204.009 C 125.921 201.259, 134.603 198.380, 140.806 197.527 L 146 196.812 146 191.768 L 146 186.725 140.750 187.365 C 137.863 187.718, 134.464 188.288, 133.198 188.633 C 131.088 189.208, 130.953 189.021, 131.575 186.380 C 131.948 184.796, 133.062 181.137, 134.051 178.250 C 135.902 172.844, 135.881 171.486, 134 175 M 140.660 176.750 C 138.811 183.572, 138.831 183.644, 142.526 183.581 C 145.954 183.523, 146 183.465, 146 179.139 C 146 175.356, 145.795 174.926, 144.500 176 C 143.464 176.860, 143 176.898, 143 176.122 C 143 174.336, 141.183 174.823, 140.660 176.750 M 209.815 177.400 C 210.093 178.462, 213.467 182.643, 217.313 186.693 C 223.483 193.188, 224.133 195.598, 218.500 191.098 C 216.505 189.504, 216.505 189.506, 218.469 191.821 C 219.552 193.098, 224.052 195.941, 228.469 198.139 C 232.886 200.337, 235.375 201.821, 234 201.437 C 232.625 201.053, 228.925 199.448, 225.779 197.870 C 219.361 194.651, 217.680 194.236, 220.559 196.582 C 222.216 197.932, 222.244 198.083, 220.750 197.613 C 217.781 196.679, 218.802 197.802, 223.250 200.360 C 229.933 204.204, 240.783 207.710, 264.213 213.596 C 294.903 221.307, 301.037 223.462, 316.893 232.105 C 322.935 235.399, 334.743 246.148, 339.141 252.359 C 343.662 258.744, 347.377 267.478, 349.432 276.552 L 351.005 283.500 350.469 277.542 C 350.175 274.265, 349.660 270.440, 349.326 269.042 C 348.992 267.644, 349.005 266.760, 349.355 267.079 C 349.705 267.397, 350.599 270.547, 351.342 274.079 L 352.693 280.500 353.518 274.500 L 354.342 268.500 355.636 273.500 L 356.930 278.500 356.553 272.500 C 356.051 264.505, 357.490 268.260, 359.071 279.073 C 364.404 315.547, 345.783 347.947, 309.636 365.087 C 299.839 369.732, 300.306 370.252, 310.332 365.862 C 330.573 357, 345.861 342.174, 355.045 322.500 C 360.948 309.855, 362.519 302.467, 362.381 288 C 362.235 272.618, 360.460 264.666, 354.348 252 C 350.363 243.743, 348.502 241.251, 340.131 232.960 C 332.358 225.261, 328.763 222.532, 321.500 218.816 C 311.202 213.548, 298.740 209.403, 281.500 205.512 C 235.564 195.145, 225.175 191.335, 214.945 181.105 C 211.564 177.724, 209.512 176.242, 209.815 177.400 M 349.500 188.142 C 344.331 192.351, 339.202 195.285, 333.055 197.550 C 328.375 199.274, 331.046 199.311, 338.224 197.622 C 341.372 196.881, 343.732 196.624, 343.468 197.052 C 343.204 197.479, 343.328 198.019, 343.744 198.251 C 344.160 198.483, 343.927 198.531, 343.227 198.359 C 342.232 198.114, 342.203 198.511, 343.093 200.174 C 344.083 202.024, 344.002 202.215, 342.475 201.629 C 341.041 201.078, 340.935 201.217, 341.900 202.380 C 342.819 203.486, 342.794 203.909, 341.792 204.266 C 341.081 204.519, 340.796 205.046, 341.157 205.437 C 341.997 206.345, 346.959 203.804, 354.175 198.772 L 359.851 194.815 365.573 196.478 C 371.571 198.222, 372.947 197.753, 372.985 193.950 C 372.993 193.098, 373.502 191.898, 374.116 191.284 C 374.937 190.463, 372.689 189.354, 365.604 187.084 C 360.309 185.388, 355.644 184.016, 355.238 184.036 C 354.832 184.055, 352.250 185.903, 349.500 188.142 M 223.698 199.501 C 226.327 201.343, 246.038 208.020, 248.627 207.947 C 249.657 207.918, 246.846 206.813, 242.380 205.492 C 237.914 204.171, 231.670 201.944, 228.505 200.545 C 221.928 197.636, 220.635 197.355, 223.698 199.501 M 359.253 204.250 C 357.483 205.488, 356.027 206.751, 356.017 207.057 C 356.008 207.364, 357.970 209.004, 360.379 210.701 L 364.758 213.788 367.227 211.319 L 369.696 208.849 366.664 205.425 C 364.996 203.541, 363.371 202, 363.052 202 C 362.733 202, 361.023 203.012, 359.253 204.250 M 145.475 204.750 C 146.138 207.012, 145.743 207.281, 141.773 207.269 C 140.823 207.267, 140.263 207.616, 140.529 208.047 C 140.795 208.477, 140.572 208.980, 140.034 209.165 C 139.496 209.349, 140.706 212.295, 142.723 215.711 C 145.803 220.928, 146.629 221.728, 147.887 220.711 C 149.117 219.716, 149.226 219.768, 148.500 221 C 147.738 222.294, 147.849 222.311, 149.308 221.128 C 150.239 220.373, 151 220.212, 151 220.771 C 151 221.329, 151.661 222.040, 152.468 222.349 C 153.631 222.796, 153.504 221.830, 151.856 217.706 C 150.712 214.843, 149.306 211.150, 148.732 209.500 C 148.157 207.850, 147.041 205.600, 146.251 204.500 C 144.850 202.549, 144.831 202.555, 145.475 204.750 M 124.348 212.553 C 119.431 217.110, 117.237 220.931, 117.180 225.035 C 117.150 227.216, 117.510 229, 117.981 229 C 120.213 229, 122 227.604, 122 225.861 C 122 222.676, 124.916 216.692, 128.041 213.462 C 130.724 210.690, 130.806 210.411, 128.976 210.273 C 127.873 210.190, 125.791 211.216, 124.348 212.553 M 350 211.500 C 349.315 212.325, 347.840 213, 346.721 213 C 345.542 213, 350.951 217.165, 359.594 222.913 C 375.988 233.815, 388.214 243.807, 392.816 250.065 C 394.536 252.404, 396.082 253.676, 396.461 253.063 C 396.822 252.479, 396.754 251.986, 396.309 251.970 C 395.864 251.953, 396.288 251.481, 397.250 250.920 C 398.212 250.359, 399 249.275, 399 248.509 C 399 247.744, 399.520 246.797, 400.155 246.405 C 400.918 245.932, 401.035 246.134, 400.500 247 C 399.993 247.820, 400.084 248.066, 400.741 247.660 C 401.318 247.303, 402.073 247.748, 402.419 248.649 C 402.764 249.549, 403.295 250.038, 403.598 249.735 C 404.617 248.716, 399.015 241.395, 393.734 236.844 C 384.307 228.719, 355.402 210, 352.285 210 C 351.713 210, 350.685 210.675, 350 211.500 M 390.825 218.514 C 389.788 222.846, 389.651 224.837, 390.398 224.701 C 391.004 224.590, 391.831 224.050, 392.235 223.500 C 392.683 222.889, 392.975 223.010, 392.985 223.809 C 392.993 224.529, 393.450 224.840, 394 224.500 C 394.551 224.159, 395.030 224.919, 395.068 226.191 L 395.135 228.500 396.257 226.168 C 397.097 224.422, 397.080 223.358, 396.189 221.932 C 395.535 220.884, 395 219.397, 395 218.628 C 395 217.858, 394.404 216.081, 393.676 214.678 C 392.390 212.197, 392.311 212.303, 390.825 218.514 M 136.094 217.500 C 136.406 219.682, 135.955 221.090, 135.109 220.568 C 134.620 220.265, 133.471 221.158, 132.557 222.553 C 130.943 225.016, 130.998 225.229, 134.463 229.949 C 136.425 232.622, 141.736 237.923, 146.265 241.727 C 154.750 248.856, 162.998 254.424, 161.513 252.021 C 160.893 251.018, 161.110 250.828, 162.336 251.299 C 163.823 251.869, 164.445 251.022, 164.145 248.831 C 164.095 248.463, 167.079 249.669, 170.777 251.511 C 180.265 256.238, 185.302 257.231, 178 252.935 C 165.193 245.399, 150.221 232.978, 140.714 222 C 138.094 218.975, 136.015 216.950, 136.094 217.500 M 220 222.465 C 220 224.282, 274.135 237.198, 275.602 235.731 C 275.826 235.507, 268.245 233.653, 258.755 231.611 C 249.265 229.569, 237.308 226.571, 232.183 224.949 C 223.254 222.123, 220 221.459, 220 222.465 M 244.928 226.587 C 247.364 227.351, 250.964 228.201, 252.928 228.476 C 254.893 228.752, 253.350 228.092, 249.500 227.011 C 241.571 224.785, 238.182 224.470, 244.928 226.587 M 351 227.845 C 351 228.310, 351.915 229.518, 353.032 230.529 C 354.150 231.541, 356.001 233.884, 357.146 235.736 C 359.133 238.951, 359.313 239.027, 361.114 237.397 C 363.075 235.622, 363.749 233.419, 362 234.500 C 361.450 234.840, 361 234.486, 361 233.714 C 361 232.942, 360.100 231.495, 359 230.500 C 357.900 229.505, 357 229.010, 357 229.402 C 357 229.793, 356 229.413, 354.777 228.557 C 352.299 226.821, 351 226.576, 351 227.845 M 121.105 231.085 C 117.250 232.627, 109.379 238.770, 107.439 241.751 C 105.710 244.408, 105.712 244.450, 107.479 243 C 108.485 242.175, 109.576 241.613, 109.904 241.750 C 110.232 241.887, 110.500 241.572, 110.500 241.050 C 110.500 240.528, 111.063 239.628, 111.750 239.050 C 112.649 238.295, 112.741 238.315, 112.078 239.122 C 111.571 239.739, 111.377 240.818, 111.646 241.521 C 111.916 242.223, 111.656 243.095, 111.068 243.458 C 110.481 243.821, 110 244.597, 110 245.181 C 110 245.809, 110.682 245.682, 111.664 244.872 C 113.155 243.642, 113.216 243.710, 112.249 245.526 C 111.526 246.882, 111.495 248.134, 112.155 249.312 C 113.030 250.876, 113.770 250.497, 118.778 245.920 C 121.878 243.087, 125.458 240.293, 126.733 239.712 C 128.009 239.131, 128.916 238.395, 128.750 238.078 C 128.584 237.760, 127.589 235.813, 126.539 233.750 C 124.453 229.654, 124.556 229.704, 121.105 231.085 M 371.500 246.126 C 365.924 250.648, 365.209 252.066, 367.402 254.260 C 368.229 255.086, 368.589 256.138, 368.202 256.598 C 367.816 257.058, 368.309 256.814, 369.297 256.055 C 370.700 254.979, 370.810 254.499, 369.797 253.870 C 368.988 253.366, 369.588 253.145, 371.391 253.281 C 373.069 253.408, 374.401 252.965, 374.566 252.225 C 374.722 251.524, 374.621 251.411, 374.342 251.975 C 374.062 252.539, 373.366 253, 372.794 253 C 372.148 253, 372.207 252.456, 372.951 251.559 C 373.608 250.767, 374.743 250.348, 375.472 250.628 C 377.188 251.286, 378.396 249.363, 376.862 248.415 C 376.068 247.924, 375.953 248.143, 376.506 249.095 C 376.954 249.868, 376.939 250.153, 376.473 249.730 C 375.410 248.763, 375.068 244.924, 376.101 245.563 C 376.520 245.821, 377.187 245.506, 377.585 244.862 C 378.070 244.077, 377.872 243.961, 376.985 244.510 C 376.023 245.104, 375.835 244.872, 376.299 243.664 C 377.125 241.510, 377.308 241.416, 371.500 246.126 M 130.250 245.934 C 126.481 248.664, 123.040 252.330, 125.912 250.554 C 126.661 250.092, 127.062 250.322, 126.948 251.150 C 126.589 253.767, 127.011 255.111, 128 254.500 C 128.891 253.949, 129.411 256.120, 129.264 259.779 C 129.235 260.483, 131.077 259.358, 133.356 257.279 C 135.635 255.201, 138.625 252.757, 140 251.848 L 142.500 250.196 139.054 246.598 C 137.158 244.619, 135.313 243, 134.954 243 C 134.594 243, 132.477 244.320, 130.250 245.934 M 144.500 258.587 C 142.300 260.544, 141.063 261.861, 141.750 261.513 C 142.438 261.166, 143 261.310, 143 261.833 C 143 262.355, 144.143 263.070, 145.541 263.421 C 147.164 263.828, 147.828 264.500, 147.381 265.279 C 146.995 265.951, 147.048 266.166, 147.498 265.759 C 147.948 265.351, 148.835 265.448, 149.469 265.974 C 150.242 266.616, 151.824 266.075, 154.278 264.328 L 157.936 261.726 153.718 258.373 C 151.398 256.528, 149.275 255.022, 149 255.025 C 148.725 255.027, 146.700 256.631, 144.500 258.587 M 387.015 258.500 C 386.977 260.160, 386.805 260.245, 386 259 C 385.138 257.667, 385.027 257.667, 385 259 C 384.975 260.241, 384.819 260.262, 384.096 259.122 C 382.499 256.599, 381.081 258.796, 382.074 262.257 C 383.212 266.226, 383.211 279.955, 382.073 285.848 C 381.329 289.700, 381.403 290.026, 382.723 288.706 C 383.557 287.872, 384.682 283.663, 385.278 279.154 C 385.863 274.721, 386.671 271.297, 387.073 271.545 C 388.326 272.319, 389.277 260.311, 388.120 258.322 C 387.119 256.601, 387.058 256.610, 387.015 258.500 M 165.203 265.429 C 160.752 268.576, 160.403 269, 162.262 269 C 163.139 269, 164.511 268.346, 165.310 267.548 C 166.108 266.749, 167.040 266.374, 167.381 266.714 C 167.721 267.055, 168 266.782, 168 266.108 C 168 265.434, 168.520 265.203, 169.155 265.595 C 169.837 266.017, 170.039 265.872, 169.648 265.240 C 169.285 264.652, 169.553 263.943, 170.244 263.664 C 171.099 263.319, 171.021 263.148, 170 263.128 C 169.175 263.112, 167.016 264.147, 165.203 265.429 M 138.058 267.981 C 140.784 271.538, 150.911 276.202, 158.500 277.397 C 161.738 277.907, 161.111 277.470, 155.211 275.103 C 151.202 273.495, 147.377 271.767, 146.711 271.262 C 146.045 270.757, 143.250 269.062, 140.500 267.494 L 135.500 264.643 138.058 267.981 M 371.070 268.750 C 371.109 269.163, 371.529 270.400, 372.005 271.500 C 372.750 273.226, 372.848 273.123, 372.716 270.750 C 372.632 269.238, 372.212 268, 371.782 268 C 371.352 268, 371.032 268.337, 371.070 268.750 M 236 299.368 C 236 315.601, 236.359 329.104, 236.798 329.375 C 237.237 329.646, 238.144 329.529, 238.813 329.115 C 239.735 328.546, 239.967 321.334, 239.766 299.445 C 239.521 272.821, 239.361 270.500, 237.750 270.190 C 236.115 269.876, 236 271.797, 236 299.368 M 122.458 276.750 C 123.258 281.150, 127.243 291.964, 128.073 291.985 C 128.388 291.993, 127.786 288.288, 126.735 283.750 C 124.236 272.962, 124.250 273, 122.920 273 C 122.145 273, 121.997 274.207, 122.458 276.750 M 354.252 279.500 C 354.263 281.700, 354.468 282.482, 354.707 281.238 C 354.946 279.994, 354.937 278.194, 354.687 277.238 C 354.437 276.282, 354.241 277.300, 354.252 279.500 M 272 300.531 C 272 319.837, 272.211 323, 273.500 323 C 274.788 323, 275 319.901, 275 301.107 C 275 282.569, 274.770 279.126, 273.500 278.638 C 272.194 278.137, 272 280.970, 272 300.531 M 180.024 282.539 C 169.305 285.545, 159.998 293.327, 155.814 302.780 C 152.869 309.436, 152.242 321.882, 154.466 329.533 C 158.551 343.582, 173.448 356.754, 187.253 358.521 C 191.437 359.056, 191.419 359.037, 186 357.200 C 177.341 354.265, 172.101 351.196, 166.944 346.040 C 156.245 335.340, 152.519 319.903, 157.704 307.750 C 159.140 304.383, 160.064 303.573, 162.154 303.850 C 162.514 303.897, 163.334 303.302, 163.977 302.527 C 164.620 301.753, 165.788 301.365, 166.573 301.666 C 167.358 301.968, 168 301.732, 168 301.142 C 168 300.553, 168.903 299.587, 170.007 298.996 C 171.652 298.116, 171.480 298.694, 169.048 302.211 C 167.417 304.570, 165.782 307.850, 165.416 309.500 C 164.943 311.628, 165.595 310.902, 167.661 307 C 170.910 300.864, 177.342 295.808, 184.343 293.886 C 189.083 292.585, 198.583 294.026, 202.595 296.654 C 203.869 297.489, 205.351 297.901, 205.887 297.570 C 206.423 297.239, 207.187 297.494, 207.585 298.138 C 208.080 298.939, 207.865 299.041, 206.905 298.463 C 205.717 297.747, 205.708 297.872, 206.846 299.276 C 207.586 300.189, 208.486 300.897, 208.846 300.850 C 209.206 300.802, 209.725 300.851, 210 300.958 C 211.951 301.719, 214 301.665, 214 300.852 C 214 300.319, 214.563 300.229, 215.250 300.652 C 215.938 301.076, 215.634 300.090, 214.575 298.461 C 212.800 295.730, 212.792 295.616, 214.479 297 C 215.485 297.825, 216.576 298.302, 216.904 298.059 C 217.900 297.323, 221.933 304.040, 223.113 308.401 C 223.724 310.655, 224.003 315.608, 223.734 319.407 C 223.350 324.830, 223.487 325.905, 224.372 324.407 C 224.993 323.358, 225.489 318.675, 225.475 314 C 225.456 307.156, 224.997 304.577, 223.122 300.764 C 215.840 285.957, 196.699 277.862, 180.024 282.539 M 315.361 290.035 C 315.338 300.800, 308.908 312.211, 299.255 318.619 C 289.045 325.396, 276.681 329.079, 244.461 334.941 C 206.855 341.783, 197.397 342.317, 187.779 338.144 C 175.730 332.917, 167.686 317.243, 172.411 308.200 C 174.305 304.575, 178.866 300.367, 182.315 299.064 C 186.527 297.472, 195.731 297.779, 199.655 299.641 C 203.999 301.702, 207.681 306.462, 208.877 311.564 C 209.666 314.933, 209.814 315.095, 209.900 312.684 C 210.213 303.908, 197.858 294.808, 187.812 296.414 C 179.086 297.809, 171.179 304.401, 168.813 312.252 C 166.054 321.407, 172.668 333.722, 183.500 339.596 C 194.960 345.812, 209.933 346.950, 235.028 343.513 C 240.819 342.720, 246.669 342.319, 248.028 342.622 C 250.014 343.065, 250.205 342.954, 249 342.056 C 247.812 341.172, 248.055 341.068, 250.168 341.558 C 253.281 342.279, 264.814 340.121, 263.195 339.121 C 262.593 338.748, 266.240 337.388, 271.300 336.098 C 280.711 333.699, 297.777 326.745, 302.093 323.552 C 304.473 321.792, 304.475 321.778, 302.253 322.292 C 300.503 322.696, 301.124 321.671, 305.065 317.656 C 313.602 308.955, 318.652 294.885, 316.234 286.535 C 315.536 284.128, 315.372 284.786, 315.361 290.035 M 210.181 299.338 C 210.909 300.698, 211.489 301.032, 211.753 300.241 C 211.983 299.552, 212.695 299.281, 213.335 299.640 C 214.099 300.069, 214.074 299.834, 213.260 298.957 C 212.578 298.222, 211.347 297.521, 210.523 297.401 C 209.292 297.220, 209.231 297.564, 210.181 299.338 M 163.574 304.857 C 162.708 306.531, 162 308.468, 162 309.162 C 162 309.855, 162.893 308.671, 163.985 306.530 C 165.077 304.388, 165.785 302.451, 165.559 302.225 C 165.332 301.999, 164.439 303.184, 163.574 304.857 M 160.500 306 C 160.125 307.183, 160.042 308.376, 160.317 308.651 C 160.592 308.926, 161.125 308.183, 161.500 307 C 161.875 305.817, 161.958 304.624, 161.683 304.349 C 161.408 304.074, 160.875 304.817, 160.500 306 M 186.174 309.314 C 182.771 312.938, 183.196 319.014, 187.169 323.540 C 190.766 327.636, 204.851 336.271, 206.749 335.543 C 207.437 335.279, 208 335.444, 208 335.910 C 208 336.892, 220.365 336.663, 230.402 335.496 L 237.303 334.693 229.902 332.077 C 216.685 327.405, 191.670 312.688, 190.459 308.871 C 189.681 306.421, 188.808 306.511, 186.174 309.314 M 189 321.447 C 189 321.722, 191.284 323.485, 194.076 325.365 C 196.873 327.249, 198.579 328.974, 197.876 329.208 C 196.969 329.510, 197.063 329.810, 198.202 330.247 C 199.258 330.652, 199.730 330.363, 199.588 329.397 C 199.393 328.071, 189 320.267, 189 321.447 M 204 329.501 C 204 329.753, 205.844 330.900, 208.097 332.049 C 214.153 335.139, 212.098 335.573, 205.849 332.525 C 202.907 331.089, 201.281 330.541, 202.234 331.306 C 203.188 332.072, 203.638 333.063, 203.234 333.509 C 202.831 333.955, 203.053 334.003, 203.729 333.614 C 204.405 333.225, 205.965 333.446, 207.196 334.105 C 208.426 334.763, 211.248 335.452, 213.467 335.635 L 217.500 335.968 213.500 333.723 C 208.427 330.875, 204 328.908, 204 329.501 M 285 364.090 C 280.325 365.088, 272.450 366.352, 267.500 366.898 L 258.500 367.891 268 367.487 C 276.779 367.113, 287.203 365.391, 294.500 363.110 C 299.381 361.584, 294.270 362.111, 285 364.090 M 217 372.529 C 222.594 374.391, 236.383 376.027, 245 375.851 C 250.162 375.745, 249.236 375.551, 240.500 374.907 C 234.450 374.461, 226.800 373.592, 223.500 372.976 C 213.148 371.044, 212.378 370.991, 217 372.529 M 273.338 376.804 C 272.658 377.233, 272.073 382.684, 271.813 391 C 271.470 402.013, 271 405.371, 269.262 409.227 L 267.133 413.954 269.816 415.294 C 271.292 416.031, 272.401 417.124, 272.281 417.724 C 272.161 418.323, 272.758 418.712, 273.609 418.587 C 274.952 418.390, 275.140 415.612, 275.040 397.476 C 274.977 385.990, 274.817 376.483, 274.684 376.350 C 274.551 376.217, 273.945 376.422, 273.338 376.804 M 236 400 C 236 410.450, 236.372 419, 236.826 419 C 237.280 419, 238.708 417.875, 240 416.500 C 242.245 414.110, 244.737 412.998, 243.553 414.915 C 243.242 415.418, 243.553 416.057, 244.244 416.336 C 245.242 416.738, 245.243 416.858, 244.250 416.921 C 241.560 417.091, 243.181 418.701, 246.126 418.785 L 249.253 418.873 246.741 416.187 C 241.539 410.624, 240.585 407.360, 240.179 393.750 C 239.830 382.025, 239.646 381, 237.900 381 C 236.100 381, 236 382.001, 236 400" stroke="none" fill="#0b2d38" fill-rule="evenodd"/></svg>