<svg xmlns="http://www.w3.org/2000/svg" width="149" height="141" viewBox="0 0 149 141" version="1.1"><path d="M 103.264 7.718 C 104.784 7.947, 107.034 7.941, 108.264 7.704 C 109.494 7.467, 108.250 7.279, 105.500 7.286 C 102.750 7.294, 101.744 7.488, 103.264 7.718 M 97.507 8.989 C 97.157 9.555, 97.558 9.723, 98.448 9.382 C 100.180 8.717, 100.497 8, 99.059 8 C 98.541 8, 97.843 8.445, 97.507 8.989 M 113.759 9.995 C 115.552 11.088, 117.912 13.448, 119.005 15.241 C 120.098 17.033, 120.994 17.885, 120.996 17.132 C 121.001 15.354, 113.646 7.999, 111.868 8.004 C 111.115 8.006, 111.967 8.902, 113.759 9.995 M 64.411 10.473 C 50.234 13.583, 37.504 23.438, 31.250 36.143 C 29.463 39.774, 28 43.028, 28 43.373 C 28 43.718, 30.432 44, 33.405 44 L 38.809 44 41.788 38.722 C 47.411 28.759, 56.753 22.347, 67.351 21.178 L 73.500 20.500 73.500 15.014 C 73.500 8.621, 73.302 8.522, 64.411 10.473 M 77.189 15.275 C 77.012 20.672, 77.173 21.115, 79.639 22.053 C 81.090 22.605, 82.493 22.840, 82.757 22.577 C 83.020 22.313, 82.079 21.807, 80.665 21.452 C 78.343 20.869, 78.059 20.260, 77.736 15.153 L 77.378 9.500 77.189 15.275 M 79.750 10.662 C 80.438 10.940, 81.563 10.940, 82.250 10.662 C 82.938 10.385, 82.375 10.158, 81 10.158 C 79.625 10.158, 79.063 10.385, 79.750 10.662 M 93.783 11.750 C 91.741 14.091, 89.991 17.566, 90.039 19.184 C 90.061 19.908, 90.756 18.938, 91.583 17.030 C 92.411 15.121, 93.813 12.759, 94.699 11.780 C 95.585 10.801, 96.085 10, 95.810 10 C 95.535 10, 94.623 10.787, 93.783 11.750 M 84.328 17.500 C 84.333 21.350, 84.513 22.802, 84.730 20.728 C 84.946 18.653, 84.943 15.503, 84.722 13.728 C 84.501 11.952, 84.324 13.650, 84.328 17.500 M 103.750 12.706 C 104.987 12.944, 107.013 12.944, 108.250 12.706 C 109.487 12.467, 108.475 12.272, 106 12.272 C 103.525 12.272, 102.513 12.467, 103.750 12.706 M 113.434 15.712 C 114.498 16.982, 115.679 19.929, 116.059 22.260 L 116.750 26.500 116.875 22.766 C 116.970 19.937, 116.333 18.349, 114.250 16.218 C 112.737 14.670, 112.370 14.443, 113.434 15.712 M 96.388 16.531 C 95.475 17.923, 94.911 19.244, 95.133 19.467 C 95.356 19.689, 96.296 18.550, 97.222 16.935 C 99.286 13.340, 98.673 13.043, 96.388 16.531 M 102.750 15.162 C 99.632 16.301, 99.409 17.343, 101.447 21.250 C 102.718 23.687, 102.704 24, 101.324 24 C 100.197 24, 99.933 24.622, 100.370 26.250 C 100.701 27.488, 100.979 28.837, 100.986 29.250 C 100.994 29.663, 102.710 30, 104.800 30 C 108.542 30, 111.029 28.609, 110.970 26.550 C 110.953 25.973, 110.481 26.288, 109.920 27.250 C 108.570 29.568, 102.462 29.646, 101.583 27.357 C 100.688 25.024, 101.758 24.368, 104.086 25.822 C 106.108 27.085, 108 26.659, 108 24.941 C 108 24.423, 107.155 24, 106.122 24 C 103.776 24, 102.117 22.066, 101.768 18.923 C 101.563 17.078, 102.032 16.430, 103.750 16.184 C 104.987 16.006, 106 15.442, 106 14.930 C 106 14.419, 105.888 14.036, 105.750 14.079 C 105.612 14.122, 104.263 14.610, 102.750 15.162 M 107.008 14.715 C 107.012 15.147, 108.138 16.020, 109.509 16.656 C 110.880 17.293, 111.752 17.407, 111.446 16.912 C 110.630 15.593, 106.999 13.795, 107.008 14.715 M 104.677 20.600 C 105.102 21.707, 106.017 21.965, 107.886 21.504 C 112.122 20.458, 112.162 19.516, 107.982 19.276 C 104.821 19.094, 104.195 19.345, 104.677 20.600 M 121.272 23 C 121.272 25.475, 121.467 26.488, 121.706 25.250 C 121.944 24.012, 121.944 21.988, 121.706 20.750 C 121.467 19.512, 121.272 20.525, 121.272 23 M 106.333 20.667 C 106.700 21.033, 107.300 21.033, 107.667 20.667 C 108.033 20.300, 107.733 20, 107 20 C 106.267 20, 105.967 20.300, 106.333 20.667 M 94.079 22.583 C 94.127 23.748, 94.364 23.985, 94.683 23.188 C 94.972 22.466, 94.936 21.603, 94.604 21.271 C 94.272 20.939, 94.036 21.529, 94.079 22.583 M 109.564 23.293 C 109.940 24.279, 110.499 24.834, 110.807 24.526 C 111.115 24.219, 110.808 23.412, 110.124 22.733 C 109.136 21.753, 109.022 21.868, 109.564 23.293 M 90.079 26.583 C 90.127 27.748, 90.364 27.985, 90.683 27.188 C 90.972 26.466, 90.936 25.603, 90.604 25.271 C 90.272 24.939, 90.036 25.529, 90.079 26.583 M 95 26 C 95 26.733, 95.300 27.033, 95.667 26.667 C 96.033 26.300, 96.033 25.700, 95.667 25.333 C 95.300 24.967, 95 25.267, 95 26 M 105.333 25.667 C 105.700 26.033, 106.300 26.033, 106.667 25.667 C 107.033 25.300, 106.733 25, 106 25 C 105.267 25, 104.967 25.300, 105.333 25.667 M 64.750 26.662 C 65.438 26.940, 66.563 26.940, 67.250 26.662 C 67.938 26.385, 67.375 26.158, 66 26.158 C 64.625 26.158, 64.063 26.385, 64.750 26.662 M 74.269 26.693 C 75.242 26.947, 76.592 26.930, 77.269 26.656 C 77.946 26.382, 77.150 26.175, 75.500 26.195 C 73.850 26.215, 73.296 26.439, 74.269 26.693 M 61.333 27.667 C 61.700 28.033, 62.300 28.033, 62.667 27.667 C 63.033 27.300, 62.733 27, 62 27 C 61.267 27, 60.967 27.300, 61.333 27.667 M 79.083 27.365 C 79.313 27.565, 80.625 28.265, 82 28.920 C 84.357 30.042, 84.389 30.022, 82.559 28.555 C 80.966 27.279, 77.711 26.164, 79.083 27.365 M 113.606 29.848 L 111.712 32.500 114.050 30.278 C 115.337 29.056, 116.189 27.862, 115.944 27.626 C 115.700 27.389, 114.648 28.389, 113.606 29.848 M 57.507 28.989 C 57.157 29.555, 57.558 29.723, 58.448 29.382 C 60.180 28.717, 60.497 28, 59.059 28 C 58.541 28, 57.843 28.445, 57.507 28.989 M 98.220 30.533 C 99.716 32.106, 101.119 33.193, 101.338 32.947 C 101.557 32.701, 100.333 31.414, 98.618 30.086 L 95.500 27.672 98.220 30.533 M 119.564 29.707 C 119.022 31.132, 119.136 31.247, 120.124 30.267 C 120.808 29.588, 121.115 28.781, 120.807 28.474 C 120.499 28.166, 119.940 28.721, 119.564 29.707 M 91.785 30.511 C 92.351 31.617, 93.869 33.414, 95.157 34.504 C 97.417 36.416, 97.412 36.380, 95.015 33.493 C 91.033 28.697, 90.697 28.387, 91.785 30.511 M 54.405 31.155 C 53.962 31.870, 54.130 32.038, 54.845 31.595 C 55.998 30.883, 56.393 30, 55.559 30 C 55.316 30, 54.797 30.520, 54.405 31.155 M 86.859 32.291 C 88.054 33.765, 87.873 34.101, 85.359 35.083 C 83.786 35.697, 81.468 36.210, 80.206 36.224 C 77.927 36.250, 77.925 36.259, 79.962 37.686 C 83.156 39.923, 85 44.430, 85 50 C 85 59.661, 80.521 64, 70.550 64 L 65 64 65 58.223 C 65 51.862, 66.897 48, 70.022 48 C 71.071 48, 72.414 48.905, 73.005 50.010 C 73.893 51.668, 73.636 52.433, 71.541 54.375 C 67.797 57.844, 68.194 60, 72.577 60 C 77.719 60, 82 55.553, 82 50.212 C 82 37.215, 62.582 35.183, 57.379 47.636 C 56.335 50.134, 56 56.865, 56 75.351 L 56 99.767 58.250 100.370 C 59.487 100.701, 61.513 100.979, 62.750 100.986 C 64.972 101, 65 100.833, 65 87.613 L 65 74.226 71.869 73.838 C 81.199 73.310, 87.287 69.621, 91.206 62.120 C 93.606 57.527, 94 55.609, 94 48.536 C 94 41.013, 93.746 39.949, 91.066 36.250 C 89.452 34.022, 87.540 31.843, 86.816 31.408 C 85.781 30.785, 85.790 30.974, 86.859 32.291 M 116.405 34.250 L 114.500 36.500 116.750 34.595 C 117.987 33.547, 119 32.535, 119 32.345 C 119 31.545, 118.195 32.136, 116.405 34.250 M 104.250 33.689 C 105.213 33.941, 106.787 33.941, 107.750 33.689 C 108.713 33.438, 107.925 33.232, 106 33.232 C 104.075 33.232, 103.287 33.438, 104.250 33.689 M 68.762 34.707 C 70.006 34.946, 71.806 34.937, 72.762 34.687 C 73.718 34.437, 72.700 34.241, 70.500 34.252 C 68.300 34.263, 67.518 34.468, 68.762 34.707 M 63.813 35.683 C 64.534 35.972, 65.397 35.936, 65.729 35.604 C 66.061 35.272, 65.471 35.036, 64.417 35.079 C 63.252 35.127, 63.015 35.364, 63.813 35.683 M 75.333 35.667 C 75.700 36.033, 76.300 36.033, 76.667 35.667 C 77.033 35.300, 76.733 35, 76 35 C 75.267 35, 74.967 35.300, 75.333 35.667 M 47.872 37.750 C 46.629 39.336, 46.664 39.371, 48.250 38.128 C 49.212 37.373, 50 36.585, 50 36.378 C 50 35.555, 49.179 36.084, 47.872 37.750 M 60.405 37.155 C 59.962 37.870, 60.130 38.038, 60.845 37.595 C 61.998 36.883, 62.393 36, 61.559 36 C 61.316 36, 60.797 36.520, 60.405 37.155 M 97.773 38.500 C 97.125 41.759, 97.552 42.906, 98.865 41.433 C 99.323 40.920, 99.398 39.375, 99.033 38 C 98.371 35.509, 98.367 35.511, 97.773 38.500 M 110.333 37.667 C 110.700 38.033, 111.300 38.033, 111.667 37.667 C 112.033 37.300, 111.733 37, 111 37 C 110.267 37, 109.967 37.300, 110.333 37.667 M 56.323 40.250 C 55.209 41.487, 53.940 43.175, 53.502 44 C 52.658 45.591, 52.888 45.374, 56.939 40.750 C 58.264 39.237, 59.124 38, 58.849 38 C 58.574 38, 57.437 39.013, 56.323 40.250 M 104.250 38.689 C 105.213 38.941, 106.787 38.941, 107.750 38.689 C 108.713 38.438, 107.925 38.232, 106 38.232 C 104.075 38.232, 103.287 38.438, 104.250 38.689 M 115.333 40.667 C 115.700 41.033, 116.300 41.033, 116.667 40.667 C 117.033 40.300, 116.733 40, 116 40 C 115.267 40, 114.967 40.300, 115.333 40.667 M 112.333 41.667 C 112.700 42.033, 113.300 42.033, 113.667 41.667 C 114.033 41.300, 113.733 41, 113 41 C 112.267 41, 111.967 41.300, 112.333 41.667 M 105.823 42.675 C 104.411 43.048, 104.313 43.599, 105.201 46.146 C 106.700 50.446, 105.602 61.649, 103.128 67.302 C 99.966 74.528, 91.672 82.283, 84.187 85.012 C 78.625 87.040, 78 87.549, 78 90.053 C 78 92.789, 78.067 92.820, 81.750 91.805 C 101.987 86.228, 114.635 67.054, 111.567 46.601 C 110.866 41.921, 110.255 41.504, 105.823 42.675 M 119.079 43.583 C 119.127 44.748, 119.364 44.985, 119.683 44.188 C 119.972 43.466, 119.936 42.603, 119.604 42.271 C 119.272 41.939, 119.036 42.529, 119.079 43.583 M 101.333 43.667 C 101.700 44.033, 102.300 44.033, 102.667 43.667 C 103.033 43.300, 102.733 43, 102 43 C 101.267 43, 100.967 43.300, 101.333 43.667 M 44.079 45.583 C 44.127 46.748, 44.364 46.985, 44.683 46.188 C 44.972 45.466, 44.936 44.603, 44.604 44.271 C 44.272 43.939, 44.036 44.529, 44.079 45.583 M 97 45.059 C 97 45.641, 97.450 45.840, 98 45.500 C 98.550 45.160, 99 44.684, 99 44.441 C 99 44.198, 98.550 44, 98 44 C 97.450 44, 97 44.477, 97 45.059 M 52 47 C 52 47.733, 52.300 48.033, 52.667 47.667 C 53.033 47.300, 53.033 46.700, 52.667 46.333 C 52.300 45.967, 52 46.267, 52 47 M 98.310 52.500 C 98.315 55.800, 98.502 57.029, 98.725 55.232 C 98.947 53.435, 98.943 50.735, 98.715 49.232 C 98.486 47.729, 98.304 49.200, 98.310 52.500 M 120.320 53 C 120.320 56.575, 120.502 58.038, 120.723 56.250 C 120.945 54.462, 120.945 51.538, 120.723 49.750 C 120.502 47.962, 120.320 49.425, 120.320 53 M 43.378 59 C 43.378 65.325, 43.541 67.912, 43.739 64.750 C 43.937 61.587, 43.937 56.412, 43.739 53.250 C 43.541 50.087, 43.378 52.675, 43.378 59 M 26.417 50.355 C 26.131 51.101, 26.039 54.588, 26.212 58.105 L 26.527 64.500 27.013 56.748 C 27.500 48.990, 27.391 47.817, 26.417 50.355 M 38.336 56 C 38.336 60.125, 38.513 61.813, 38.728 59.750 C 38.944 57.688, 38.944 54.313, 38.728 52.250 C 38.513 50.188, 38.336 51.875, 38.336 56 M 51.158 51 C 51.158 52.375, 51.385 52.938, 51.662 52.250 C 51.940 51.563, 51.940 50.438, 51.662 49.750 C 51.385 49.063, 51.158 49.625, 51.158 51 M 72.217 55.025 C 69.273 57.409, 69.412 59, 72.566 59 C 75.989 59, 78.715 57.442, 80.044 54.727 C 81.010 52.754, 80.901 52.785, 79.089 55 C 77.530 56.906, 77.039 57.110, 77.022 55.857 C 76.989 53.394, 74.717 53.001, 72.217 55.025 M 51.079 55.583 C 51.127 56.748, 51.364 56.985, 51.683 56.188 C 51.972 55.466, 51.936 54.603, 51.604 54.271 C 51.272 53.939, 51.036 54.529, 51.079 55.583 M 74.500 55 C 74.840 55.550, 75.343 56, 75.618 56 C 75.893 56, 75.840 55.550, 75.500 55 C 75.160 54.450, 74.657 54, 74.382 54 C 74.107 54, 74.160 54.450, 74.500 55 M 97.079 60.583 C 97.127 61.748, 97.364 61.985, 97.683 61.188 C 97.972 60.466, 97.936 59.603, 97.604 59.271 C 97.272 58.939, 97.036 59.529, 97.079 60.583 M 119.079 62.583 C 119.127 63.748, 119.364 63.985, 119.683 63.188 C 119.972 62.466, 119.936 61.603, 119.604 61.271 C 119.272 60.939, 119.036 61.529, 119.079 62.583 M 35.750 65.662 C 36.438 65.940, 37.563 65.940, 38.250 65.662 C 38.938 65.385, 38.375 65.158, 37 65.158 C 35.625 65.158, 35.063 65.385, 35.750 65.662 M 118.079 66.583 C 118.127 67.748, 118.364 67.985, 118.683 67.188 C 118.972 66.466, 118.936 65.603, 118.604 65.271 C 118.272 64.939, 118.036 65.529, 118.079 66.583 M 27 67 C 27 67.550, 27.477 68, 28.059 68 C 28.641 68, 28.840 67.550, 28.500 67 C 28.160 66.450, 27.684 66, 27.441 66 C 27.198 66, 27 66.450, 27 67 M 30.750 66.662 C 31.438 66.940, 32.563 66.940, 33.250 66.662 C 33.938 66.385, 33.375 66.158, 32 66.158 C 30.625 66.158, 30.063 66.385, 30.750 66.662 M 93.405 68.155 C 92.962 68.870, 93.130 69.038, 93.845 68.595 C 94.998 67.883, 95.393 67, 94.559 67 C 94.316 67, 93.797 67.520, 93.405 68.155 M 116.624 70.539 C 115.659 73.053, 115.943 73.702, 117.122 71.675 C 117.706 70.671, 117.973 69.639, 117.715 69.382 C 117.458 69.124, 116.966 69.645, 116.624 70.539 M 39.813 70.683 C 40.534 70.972, 41.397 70.936, 41.729 70.604 C 42.061 70.272, 41.471 70.036, 40.417 70.079 C 39.252 70.127, 39.015 70.364, 39.813 70.683 M 90.872 71.750 C 89.629 73.336, 89.664 73.371, 91.250 72.128 C 92.916 70.821, 93.445 70, 92.622 70 C 92.415 70, 91.627 70.787, 90.872 71.750 M 33.750 71.662 C 34.438 71.940, 35.563 71.940, 36.250 71.662 C 36.938 71.385, 36.375 71.158, 35 71.158 C 33.625 71.158, 33.063 71.385, 33.750 71.662 M 29.813 72.683 C 30.534 72.972, 31.397 72.936, 31.729 72.604 C 32.061 72.272, 31.471 72.036, 30.417 72.079 C 29.252 72.127, 29.015 72.364, 29.813 72.683 M 29 75 C 29 75.733, 29.300 76.033, 29.667 75.667 C 30.033 75.300, 30.033 74.700, 29.667 74.333 C 29.300 73.967, 29 74.267, 29 75 M 86.405 75.155 C 85.962 75.870, 86.130 76.038, 86.845 75.595 C 87.998 74.883, 88.393 74, 87.559 74 C 87.316 74, 86.797 74.520, 86.405 75.155 M 81.333 77.667 C 81.700 78.033, 82.300 78.033, 82.667 77.667 C 83.033 77.300, 82.733 77, 82 77 C 81.267 77, 80.967 77.300, 81.333 77.667 M 77.813 78.683 C 78.534 78.972, 79.397 78.936, 79.729 78.604 C 80.061 78.272, 79.471 78.036, 78.417 78.079 C 77.252 78.127, 77.015 78.364, 77.813 78.683 M 112.405 79.155 C 111.962 79.870, 112.130 80.038, 112.845 79.595 C 113.998 78.883, 114.393 78, 113.559 78 C 113.316 78, 112.797 78.520, 112.405 79.155 M 71.269 79.693 C 72.242 79.947, 73.592 79.930, 74.269 79.656 C 74.946 79.382, 74.150 79.175, 72.500 79.195 C 70.850 79.215, 70.296 79.439, 71.269 79.693 M 32.500 82 C 32.840 82.550, 33.343 83, 33.618 83 C 33.893 83, 33.840 82.550, 33.500 82 C 33.160 81.450, 32.657 81, 32.382 81 C 32.107 81, 32.160 81.450, 32.500 82 M 109.872 82.750 C 108.629 84.336, 108.664 84.371, 110.250 83.128 C 111.916 81.821, 112.445 81, 111.622 81 C 111.415 81, 110.627 81.787, 109.872 82.750 M 37.958 88.250 C 40.410 90.862, 42.548 93, 42.708 93 C 43.459 93, 42.665 92.102, 38.250 87.958 L 33.500 83.500 37.958 88.250 M 105.437 88.250 L 102.500 91.500 105.750 88.563 C 107.537 86.948, 109 85.485, 109 85.313 C 109 84.540, 108.175 85.221, 105.437 88.250 M 96.044 94.602 C 93.044 96.471, 91.043 98, 91.598 98 C 92.803 98, 102 92.272, 102 91.522 C 102 90.852, 102.378 90.657, 96.044 94.602 M 44.500 94 C 44.840 94.550, 45.343 95, 45.618 95 C 45.893 95, 45.840 94.550, 45.500 94 C 45.160 93.450, 44.657 93, 44.382 93 C 44.107 93, 44.160 93.450, 44.500 94 M 47.733 96.124 C 48.412 96.808, 49.219 97.115, 49.526 96.807 C 49.834 96.499, 49.279 95.940, 48.293 95.564 C 46.868 95.022, 46.753 95.136, 47.733 96.124 M 86.500 99 C 85.181 99.567, 85.011 99.878, 86 99.914 C 86.825 99.945, 88.175 99.533, 89 99 C 90.828 97.819, 89.249 97.819, 86.500 99 M 80.750 100.662 C 81.438 100.940, 82.563 100.940, 83.250 100.662 C 83.938 100.385, 83.375 100.158, 82 100.158 C 80.625 100.158, 80.063 100.385, 80.750 100.662 M 71.750 101.706 C 72.987 101.944, 75.013 101.944, 76.250 101.706 C 77.487 101.467, 76.475 101.272, 74 101.272 C 71.525 101.272, 70.513 101.467, 71.750 101.706 M 42.333 113.667 C 42.700 114.033, 43.300 114.033, 43.667 113.667 C 44.033 113.300, 43.733 113, 43 113 C 42.267 113, 41.967 113.300, 42.333 113.667 M 117.333 113.667 C 117.700 114.033, 118.300 114.033, 118.667 113.667 C 119.033 113.300, 118.733 113, 118 113 C 117.267 113, 116.967 113.300, 117.333 113.667 M 9.336 121 C 9.336 125.125, 9.513 126.813, 9.728 124.750 C 9.944 122.688, 9.944 119.313, 9.728 117.250 C 9.513 115.188, 9.336 116.875, 9.336 121 M 18 114.393 C 18 114.609, 18.698 115.054, 19.552 115.382 C 20.442 115.723, 20.843 115.555, 20.493 114.989 C 19.906 114.038, 18 113.583, 18 114.393 M 32.250 115.080 C 34.124 116.172, 34.687 121.457, 33.038 122.477 C 32.434 122.850, 32.495 123.992, 33.200 125.540 C 33.819 126.898, 34.513 127.820, 34.743 127.590 C 34.974 127.360, 34.674 126.260, 34.078 125.146 C 33.362 123.808, 33.335 122.911, 33.997 122.502 C 36.470 120.974, 34.440 113.947, 31.550 114.030 C 30.973 114.047, 31.288 114.519, 32.250 115.080 M 37.494 116.006 C 34.938 118.831, 36.026 119.093, 38.714 116.301 C 39.932 115.035, 40.564 114, 40.119 114 C 39.674 114, 38.493 114.903, 37.494 116.006 M 52.336 121 C 52.336 125.125, 52.513 126.813, 52.728 124.750 C 52.944 122.688, 52.944 119.313, 52.728 117.250 C 52.513 115.188, 52.336 116.875, 52.336 121 M 62 115.437 C 62 116.308, 60.721 117.032, 58.750 117.277 C 55.550 117.674, 55.558 117.682, 59.250 117.840 C 62.387 117.974, 63 117.673, 63 116 C 63 114.900, 62.775 114, 62.500 114 C 62.225 114, 62 114.646, 62 115.437 M 74.511 116.377 C 75.457 117.820, 76.419 119, 76.650 119 C 77.374 119, 75.045 115.146, 73.891 114.433 C 73.287 114.059, 73.566 114.934, 74.511 116.377 M 77.810 117.500 C 77.585 119.425, 77.761 121, 78.201 121 C 78.640 121, 79 119.425, 79 117.500 C 79 115.575, 78.824 114, 78.609 114 C 78.395 114, 78.035 115.575, 77.810 117.500 M 81.136 120.750 C 81.061 124.737, 81.338 128, 81.750 128.001 C 82.162 128.001, 82.370 125.638, 82.211 122.751 C 81.727 113.948, 81.280 113.115, 81.136 120.750 M 97.336 121 C 97.336 125.125, 97.513 126.813, 97.728 124.750 C 97.944 122.688, 97.944 119.313, 97.728 117.250 C 97.513 115.188, 97.336 116.875, 97.336 121 M 101.012 114.500 C 101.011 115.050, 102.117 116.850, 103.469 118.500 L 105.928 121.500 105.814 117.500 C 105.723 114.300, 105.614 114.080, 105.269 116.401 L 104.838 119.302 102.926 116.401 C 101.874 114.805, 101.012 113.950, 101.012 114.500 M 112.405 116.250 L 110.500 118.500 113 116.511 C 114.375 115.417, 115.688 114.404, 115.917 114.261 C 116.146 114.117, 115.878 114, 115.322 114 C 114.765 114, 113.453 115.013, 112.405 116.250 M 121.416 115.173 C 123.278 116.254, 123.279 116.323, 121.474 117.642 C 119.419 119.145, 120.660 119.501, 122.936 118.061 C 124.126 117.308, 124.147 116.883, 123.063 115.576 C 122.344 114.709, 121.248 114.014, 120.628 114.030 C 120.007 114.047, 120.362 114.561, 121.416 115.173 M 125.336 121 C 125.336 125.125, 125.513 126.813, 125.728 124.750 C 125.944 122.688, 125.944 119.313, 125.728 117.250 C 125.513 115.188, 125.336 116.875, 125.336 121 M 135 115.437 C 135 116.308, 133.721 117.032, 131.750 117.277 C 128.550 117.674, 128.558 117.682, 132.250 117.840 C 135.387 117.974, 136 117.673, 136 116 C 136 114.900, 135.775 114, 135.500 114 C 135.225 114, 135 114.646, 135 115.437 M 48.500 116 C 48.840 116.550, 49.343 117, 49.618 117 C 49.893 117, 49.840 116.550, 49.500 116 C 49.160 115.450, 48.657 115, 48.382 115 C 48.107 115, 48.160 115.450, 48.500 116 M 86 117 C 86 117.733, 86.300 118.033, 86.667 117.667 C 87.033 117.300, 87.033 116.700, 86.667 116.333 C 86.300 115.967, 86 116.267, 86 117 M 92 117 C 92 117.733, 92.300 118.033, 92.667 117.667 C 93.033 117.300, 93.033 116.700, 92.667 116.333 C 92.300 115.967, 92 116.267, 92 117 M 13.701 117.632 C 12.127 119.207, 13.061 121.130, 15.250 120.820 C 16.488 120.644, 17.500 119.831, 17.500 119.014 C 17.500 117.425, 14.866 116.467, 13.701 117.632 M 20.825 119.326 C 20.452 121.151, 20.592 121.808, 21.218 121.182 C 21.751 120.649, 22.011 119.377, 21.794 118.356 C 21.503 116.981, 21.251 117.233, 20.825 119.326 M 26.667 117.667 C 25.041 119.292, 26.149 120.993, 28.750 120.864 C 31.108 120.747, 31.179 120.666, 29.250 120.294 C 26.571 119.778, 26.294 118.331, 28.750 117.689 C 30.152 117.323, 30.185 117.209, 28.917 117.116 C 28.046 117.052, 27.033 117.300, 26.667 117.667 M 43.750 118.031 C 45.094 118.571, 46.047 119.854, 46.116 121.218 C 46.206 122.986, 46.337 123.095, 46.699 121.702 C 47.271 119.498, 45.331 116.978, 43.128 117.063 C 42.026 117.106, 42.227 117.419, 43.750 118.031 M 117.333 117.667 C 117.700 118.033, 118.300 118.033, 118.667 117.667 C 119.033 117.300, 118.733 117, 118 117 C 117.267 117, 116.967 117.300, 117.333 117.667 M 14 119 C 14 119.550, 14.675 120, 15.500 120 C 16.325 120, 17 119.550, 17 119 C 17 118.450, 16.325 118, 15.500 118 C 14.675 118, 14 118.450, 14 119 M 40 119 C 40 119.733, 40.300 120.033, 40.667 119.667 C 41.033 119.300, 41.033 118.700, 40.667 118.333 C 40.300 117.967, 40 118.267, 40 119 M 50.232 121 C 50.232 122.925, 50.438 123.713, 50.689 122.750 C 50.941 121.787, 50.941 120.213, 50.689 119.250 C 50.438 118.287, 50.232 119.075, 50.232 121 M 64.300 123 C 64.300 126.025, 64.487 127.263, 64.716 125.750 C 64.945 124.237, 64.945 121.763, 64.716 120.250 C 64.487 118.737, 64.300 119.975, 64.300 123 M 88.624 119.539 C 87.659 122.053, 87.943 122.702, 89.122 120.675 C 89.706 119.671, 89.973 118.639, 89.715 118.382 C 89.458 118.124, 88.966 118.645, 88.624 119.539 M 58.688 119.714 C 59.892 119.938, 61.084 120.778, 61.337 121.580 C 61.628 122.505, 61.739 122.392, 61.640 121.270 C 61.538 120.122, 60.607 119.466, 58.991 119.404 C 56.939 119.324, 56.886 119.379, 58.688 119.714 M 84.624 120.539 C 83.659 123.053, 83.943 123.702, 85.122 121.675 C 85.706 120.671, 85.973 119.639, 85.715 119.382 C 85.458 119.124, 84.966 119.645, 84.624 120.539 M 93.573 121 C 93.941 122.375, 94.659 124.175, 95.169 125 C 95.813 126.042, 95.892 125.737, 95.427 124 C 95.059 122.625, 94.341 120.825, 93.831 120 C 93.187 118.958, 93.108 119.263, 93.573 121 M 130.250 119.689 C 131.213 119.941, 132.787 119.941, 133.750 119.689 C 134.713 119.438, 133.925 119.232, 132 119.232 C 130.075 119.232, 129.287 119.438, 130.250 119.689 M 110 121 C 110 121.733, 110.300 122.033, 110.667 121.667 C 111.033 121.300, 111.033 120.700, 110.667 120.333 C 110.300 119.967, 110 120.267, 110 121 M 114 121 C 114 121.733, 114.300 122.033, 114.667 121.667 C 115.033 121.300, 115.033 120.700, 114.667 120.333 C 114.300 119.967, 114 120.267, 114 121 M 73 124.500 C 73 126.425, 73.176 128, 73.391 128 C 73.605 128, 73.965 126.425, 74.190 124.500 C 74.415 122.575, 74.239 121, 73.799 121 C 73.360 121, 73 122.575, 73 124.500 M 90 122 C 90 122.733, 90.300 123.033, 90.667 122.667 C 91.033 122.300, 91.033 121.700, 90.667 121.333 C 90.300 120.967, 90 121.267, 90 122 M 100.333 121.667 C 100.700 122.033, 101.300 122.033, 101.667 121.667 C 102.033 121.300, 101.733 121, 101 121 C 100.267 121, 99.967 121.300, 100.333 121.667 M 130.250 122.689 C 131.213 122.941, 132.787 122.941, 133.750 122.689 C 134.713 122.438, 133.925 122.232, 132 122.232 C 130.075 122.232, 129.287 122.438, 130.250 122.689 M 13.374 124.467 C 13.065 125.274, 13.043 126.511, 13.327 127.217 C 13.610 127.923, 13.878 127.517, 13.921 126.316 C 13.978 124.728, 14.750 124.019, 16.750 123.716 L 19.500 123.300 16.719 123.150 C 15.086 123.062, 13.705 123.606, 13.374 124.467 M 36 123.678 C 36 124.235, 37.013 125.547, 38.250 126.595 L 40.500 128.500 38.511 126 C 37.417 124.625, 36.404 123.313, 36.261 123.083 C 36.117 122.854, 36 123.122, 36 123.678 M 40.818 124.218 C 41.351 124.751, 42.623 125.011, 43.644 124.794 C 45.019 124.503, 44.767 124.251, 42.674 123.825 C 40.849 123.452, 40.192 123.592, 40.818 124.218 M 75.970 124.944 C 76.543 126.014, 77.505 127.194, 78.109 127.567 C 78.713 127.941, 78.434 127.066, 77.489 125.623 C 75.487 122.568, 74.451 122.105, 75.970 124.944 M 102.500 124 C 102.840 124.550, 103.343 125, 103.618 125 C 103.893 125, 103.840 124.550, 103.500 124 C 103.160 123.450, 102.657 123, 102.382 123 C 102.107 123, 102.160 123.450, 102.500 124 M 111 123.678 C 111 124.235, 112.013 125.547, 113.250 126.595 L 115.500 128.500 113.511 126 C 112.417 124.625, 111.404 123.313, 111.261 123.083 C 111.117 122.854, 111 123.122, 111 123.678 M 115.717 124.351 C 116.006 124.819, 117.485 124.953, 119.003 124.649 C 122.286 123.993, 123.413 124.797, 121.850 126.681 C 120.955 127.760, 121.061 127.914, 122.359 127.416 C 125.925 126.047, 123.362 123.561, 118.346 123.524 C 116.611 123.511, 115.428 123.883, 115.717 124.351 M 26.158 126 C 26.158 127.375, 26.385 127.938, 26.662 127.250 C 26.940 126.563, 26.940 125.438, 26.662 124.750 C 26.385 124.063, 26.158 124.625, 26.158 126 M 28.500 125 C 28.840 125.550, 29.343 126, 29.618 126 C 29.893 126, 29.840 125.550, 29.500 125 C 29.160 124.450, 28.657 124, 28.382 124 C 28.107 124, 28.160 124.450, 28.500 125 M 56.158 126 C 56.158 127.375, 56.385 127.938, 56.662 127.250 C 56.940 126.563, 56.940 125.438, 56.662 124.750 C 56.385 124.063, 56.158 124.625, 56.158 126 M 83 125 C 83 125.733, 83.300 126.033, 83.667 125.667 C 84.033 125.300, 84.033 124.700, 83.667 124.333 C 83.300 123.967, 83 124.267, 83 125 M 131.688 124.719 C 133.605 124.959, 135.054 125.792, 135.322 126.809 C 135.639 128.010, 135.802 127.849, 135.884 126.250 C 135.986 124.270, 135.550 124.019, 132.250 124.160 C 128.647 124.314, 128.625 124.336, 131.688 124.719 M 47.559 126.532 C 46.491 127.339, 46.099 128, 46.686 128 C 47.274 128, 48.315 127.325, 49 126.500 C 50.557 124.624, 50.067 124.634, 47.559 126.532 M 86.667 125.667 C 86.300 126.033, 86.007 126.821, 86.015 127.417 C 86.025 128.137, 86.277 128.115, 86.765 127.351 C 87.169 126.719, 88.625 125.993, 90 125.737 L 92.500 125.272 89.917 125.136 C 88.496 125.061, 87.033 125.300, 86.667 125.667 M 104.500 127 C 104.840 127.550, 105.343 128, 105.618 128 C 105.893 128, 105.840 127.550, 105.500 127 C 105.160 126.450, 104.657 126, 104.382 126 C 104.107 126, 104.160 126.450, 104.500 127 M 41.750 128.662 C 42.438 128.940, 43.563 128.940, 44.250 128.662 C 44.938 128.385, 44.375 128.158, 43 128.158 C 41.625 128.158, 41.063 128.385, 41.750 128.662 M 116.750 128.662 C 117.438 128.940, 118.563 128.940, 119.250 128.662 C 119.938 128.385, 119.375 128.158, 118 128.158 C 116.625 128.158, 116.063 128.385, 116.750 128.662" stroke="none" fill="#1d7f78" fill-rule="evenodd"/><path d="M 97.182 10.030 C 95.148 11.270, 93.086 13.811, 91.855 16.594 C 89.039 22.962, 90.010 27.875, 95.156 33.285 C 97.623 35.878, 98.944 38.108, 98.659 39.198 C 98.246 40.775, 98.461 40.816, 100.850 39.611 C 102.308 38.877, 105.430 38.029, 107.788 37.728 C 110.147 37.427, 113.206 36.440, 114.586 35.536 C 123.458 29.722, 123.002 15.630, 113.759 9.995 C 109.371 7.319, 101.601 7.336, 97.182 10.030 M 78 15.454 C 78 20.211, 78.206 20.639, 81 21.694 L 84 22.826 84 17.027 C 84 11.347, 83.938 11.218, 81 10.787 C 78.001 10.346, 78 10.348, 78 15.454 M 99.353 13.926 C 90.817 19.132, 94.392 32.381, 104.672 33.637 C 109.278 34.200, 114.547 31.321, 116.025 27.434 C 117.903 22.496, 117.198 18.998, 113.600 15.400 C 109.573 11.373, 104.416 10.839, 99.353 13.926 M 106.015 14.680 C 106.007 15.330, 104.987 16.006, 103.750 16.184 C 99.778 16.753, 101.978 24, 106.122 24 C 107.155 24, 108 24.423, 108 24.941 C 108 26.659, 106.108 27.085, 104.086 25.822 C 101.758 24.368, 100.688 25.024, 101.583 27.357 C 102.457 29.633, 108.580 29.573, 109.866 27.276 C 111.127 25.022, 109.526 22, 107.072 22 C 106.050 22, 104.935 21.274, 104.595 20.386 C 104.071 19.022, 104.518 18.875, 107.488 19.432 C 110.298 19.959, 111 19.775, 111 18.514 C 111 17.647, 110.213 16.647, 109.250 16.292 C 108.287 15.936, 107.169 15.163, 106.765 14.573 C 106.261 13.836, 106.026 13.870, 106.015 14.680 M 63.951 27.332 C 55.058 29.789, 48.246 35.866, 45.371 43.910 C 44.630 45.982, 44.069 52.229, 44.044 58.683 C 43.995 71.233, 44.851 70, 34.798 71.992 C 29.161 73.109, 29.107 73.153, 30.114 75.800 C 32.700 82.601, 41.160 91.963, 47.843 95.419 L 51 97.051 51.022 73.276 C 51.042 52.075, 51.250 49.046, 52.945 45.312 C 56.678 37.090, 67.344 32.287, 75.675 35.076 C 80.102 36.557, 81.445 36.555, 85.359 35.059 C 87.799 34.127, 88.028 33.739, 86.926 32.410 C 83.033 27.720, 71.652 25.205, 63.951 27.332 M 114.500 41.175 L 111.500 42.145 111.500 52.823 C 111.500 62.609, 111.255 64, 108.562 69.494 C 103.229 80.373, 93.325 88.615, 81.750 91.805 C 78.067 92.820, 78 92.789, 78 90.053 C 78 87.549, 78.625 87.040, 84.187 85.012 C 91.667 82.285, 99.958 74.535, 103.136 67.302 C 105.568 61.766, 106.690 49.787, 105.147 45.822 C 104.257 43.537, 103.714 43.249, 101.439 43.858 C 98.853 44.550, 98.769 44.806, 98.622 52.535 C 98.493 59.276, 98.025 61.307, 95.574 65.754 C 91.199 73.690, 84.607 78.048, 74.750 79.518 L 70 80.227 70 90.614 L 70 101 74.290 101 C 94.195 101, 113.021 85.631, 118.547 64.869 C 120.537 57.392, 120.233 39.754, 118.119 40.102 C 117.779 40.158, 116.150 40.641, 114.500 41.175 M 27.487 49.846 C 26.691 50.642, 26.934 65.841, 27.751 66.346 C 28.164 66.602, 30.888 66.339, 33.803 65.762 C 37.755 64.981, 38.964 64.348, 38.552 63.275 C 38.248 62.484, 38 58.926, 38 55.369 L 38 48.901 32.987 49.130 C 30.230 49.256, 27.755 49.578, 27.487 49.846 M 72.217 55.025 C 69.273 57.409, 69.412 59, 72.566 59 C 75.989 59, 78.715 57.442, 80.044 54.727 C 81.010 52.754, 80.901 52.785, 79.089 55 C 77.530 56.906, 77.039 57.110, 77.022 55.857 C 76.989 53.394, 74.717 53.001, 72.217 55.025 M 74.500 55 C 74.840 55.550, 75.343 56, 75.618 56 C 75.893 56, 75.840 55.550, 75.500 55 C 75.160 54.450, 74.657 54, 74.382 54 C 74.107 54, 74.160 54.450, 74.500 55 M 10 121 C 10 126.404, 10.326 128, 11.430 128 C 12.217 128, 13.005 126.987, 13.180 125.750 C 13.417 124.086, 14.280 123.411, 16.497 123.160 C 19.840 122.780, 20.962 121.562, 20.985 118.285 C 21.003 115.568, 18.289 114, 13.566 114 L 10 114 10 121 M 23.667 114.667 C 23.300 115.033, 23 118.183, 23 121.667 C 23 126.630, 23.325 128, 24.500 128 C 25.333 128, 26 127.111, 26 126 C 26 124.900, 26.659 124, 27.465 124 C 28.270 124, 29.411 124.900, 30 126 C 30.589 127.100, 31.730 128, 32.535 128 C 34.265 128, 34.341 127.506, 32.997 124.995 C 32.327 123.743, 32.327 122.916, 32.997 122.502 C 34.793 121.392, 34.138 116.144, 32.066 115.035 C 29.896 113.874, 24.688 113.646, 23.667 114.667 M 38.455 116.455 C 35.456 119.453, 35.351 121.905, 38.073 125.365 C 40.458 128.397, 44.368 128.832, 47.777 126.443 C 50.902 124.254, 50.902 117.746, 47.777 115.557 C 44.581 113.318, 41.273 113.636, 38.455 116.455 M 53 121 C 53 126.411, 53.325 128, 54.434 128 C 55.254 128, 56.002 126.824, 56.184 125.250 C 56.429 123.114, 57.002 122.527, 58.750 122.620 C 60.047 122.689, 61 122.159, 61 121.370 C 61 120.575, 59.950 120, 58.500 120 C 56.944 120, 56 119.433, 56 118.500 C 56 117.500, 57 117, 59 117 C 61 117, 62 116.500, 62 115.500 C 62 114.389, 60.833 114, 57.500 114 L 53 114 53 121 M 64.777 114.697 C 64.553 115.139, 64.456 116.063, 64.560 116.750 C 64.665 117.438, 64.806 120.250, 64.875 123 C 64.971 126.837, 65.367 128, 66.580 128 C 67.894 128, 68.104 126.881, 67.830 121.332 C 67.637 117.438, 67.018 114.504, 66.342 114.279 C 65.705 114.068, 65 114.256, 64.777 114.697 M 70 121 C 70 126.556, 70.310 128, 71.500 128 C 72.548 128, 73 126.944, 73 124.500 C 73 120.097, 73.901 120.100, 76.759 124.512 C 78.002 126.431, 79.464 128, 80.009 128 C 80.569 128, 81 124.957, 81 121 C 81 117, 80.571 114, 80 114 C 79.450 114, 79 115.575, 79 117.500 C 79 121.903, 78.099 121.900, 75.241 117.488 C 71.548 111.788, 70 112.825, 70 121 M 87.339 115.676 C 86.978 116.679, 85.855 119.654, 84.842 122.287 C 83.829 124.920, 83 127.282, 83 127.537 C 83 128.711, 85.850 127.832, 86.362 126.500 C 86.678 125.675, 88.028 125, 89.362 125 C 90.695 125, 92.045 125.675, 92.362 126.500 C 92.814 127.678, 96.053 128.796, 95.983 127.750 C 95.974 127.612, 94.900 124.575, 93.597 121 C 91.191 114.402, 88.591 112.189, 87.339 115.676 M 98 121 C 98 126.767, 98.283 128, 99.609 128 C 100.860 128, 101.128 127.219, 100.810 124.500 C 100.298 120.109, 100.909 120.112, 103.759 124.512 C 107.452 130.212, 109 129.175, 109 121 C 109 115.575, 108.676 114, 107.560 114 C 106.619 114, 106.013 115.297, 105.810 117.750 L 105.500 121.500 103 117.762 C 99.192 112.069, 98 112.840, 98 121 M 113.635 116.073 C 110.458 118.572, 110.263 121.793, 113.073 125.365 C 115.356 128.268, 119.970 128.946, 121.869 126.658 C 123.419 124.790, 122.270 123.996, 118.974 124.655 C 116.838 125.082, 115.929 124.735, 115.092 123.172 C 113.691 120.553, 113.702 120.440, 115.572 118.571 C 116.547 117.596, 118.026 117.219, 119.463 117.580 C 122.441 118.328, 123.666 116.427, 121.094 115.050 C 118.235 113.520, 116.593 113.746, 113.635 116.073 M 126 121 L 126 128 130.500 128 C 133.833 128, 135 127.611, 135 126.500 C 135 125.500, 134 125, 132 125 C 130 125, 129 124.500, 129 123.500 C 129 122.500, 130 122, 132 122 C 133.650 122, 135 121.550, 135 121 C 135 120.450, 133.650 120, 132 120 C 130 120, 129 119.500, 129 118.500 C 129 117.500, 130 117, 132 117 C 134 117, 135 116.500, 135 115.500 C 135 114.389, 133.833 114, 130.500 114 L 126 114 126 121 M 13.701 117.632 C 12.127 119.207, 13.061 121.130, 15.250 120.820 C 16.488 120.644, 17.500 119.831, 17.500 119.014 C 17.500 117.425, 14.866 116.467, 13.701 117.632 M 26.701 117.632 C 25.130 119.203, 26.129 121, 28.573 121 C 30.479 121, 31.060 120.549, 30.812 119.261 C 30.461 117.441, 27.905 116.428, 26.701 117.632 M 41.170 117.860 C 40.416 118.345, 39.983 119.970, 40.170 121.609 C 40.431 123.899, 40.997 124.500, 42.891 124.500 C 46.005 124.500, 47.901 121.653, 46.388 119.250 C 45.097 117.201, 43.042 116.653, 41.170 117.860 M 88.675 119.405 C 87.646 122.087, 87.855 123, 89.500 123 C 91.143 123, 91.238 122.465, 90.105 119.573 C 89.404 117.785, 89.301 117.773, 88.675 119.405" stroke="none" fill="#0b2231" fill-rule="evenodd"/></svg>